<?xml version="1.0" encoding="utf-8" standalone="no"?>
<!DOCTYPE svg PUBLIC "-//W3C//DTD SVG 1.1//EN"
  "http://www.w3.org/Graphics/SVG/1.1/DTD/svg11.dtd">
<svg xmlns:xlink="http://www.w3.org/1999/xlink" width="789.264pt" height="374.547164pt" viewBox="0 0 789.264 374.547164" xmlns="http://www.w3.org/2000/svg" version="1.1">
 <metadata>
  <rdf:RDF xmlns:dc="http://purl.org/dc/elements/1.1/" xmlns:cc="http://creativecommons.org/ns#" xmlns:rdf="http://www.w3.org/1999/02/22-rdf-syntax-ns#">
   <cc:Work>
    <dc:type rdf:resource="http://purl.org/dc/dcmitype/StillImage"/>
    <dc:date>2026-08-15T19:51:39.509975</dc:date>
    <dc:format>image/svg+xml</dc:format>
    <dc:creator>
     <cc:Agent>
      <dc:title>Matplotlib v3.11.1, https://matplotlib.org/</dc:title>
     </cc:Agent>
    </dc:creator>
   </cc:Work>
  </rdf:RDF>
 </metadata>
 <defs>
  <style type="text/css">*{stroke-linejoin: round; stroke-linecap: butt}</style>
 </defs>
 <g id="figure_1">
  <g id="patch_1">
   <path d="M 0 374.547164 
L 789.264 374.547164 
L 789.264 0 
L 0 0 
z
" style="fill: #ffffff"/>
  </g>
  <g id="axes_1">
   <g id="patch_2">
    <path d="M 117.88775 309.330711 
L 782.064 309.330711 
L 782.064 79.457891 
L 117.88775 79.457891 
z
" style="fill: #ffffff"/>
   </g>
   <g id="matplotlib.axis_1">
    <g id="xtick_1">
     <g id="line2d_1">
      <path d="M 117.88775 309.330711 
L 117.88775 79.457891 
" clip-path="url(#p74cb538030)" style="fill: none; stroke: #dedede; stroke-width: 0.7; stroke-linecap: square"/>
     </g>
     <g id="line2d_2"/>
     <g id="text_1">
      <!-- 10 GB -->
      <g style="fill: #6b6b6b" transform="translate(102.6315 320.428367) scale(0.1 -0.1)">
       <defs>
        <path id="DejaVuSans-14" d="M 794 531 
L 1825 531 
L 1825 4091 
L 703 3866 
L 703 4441 
L 1819 4666 
L 2450 4666 
L 2450 531 
L 3481 531 
L 3481 0 
L 794 0 
L 794 531 
z
" transform="scale(0.015625)"/>
        <path id="DejaVuSans-13" d="M 2034 4250 
Q 1547 4250 1301 3770 
Q 1056 3291 1056 2328 
Q 1056 1369 1301 889 
Q 1547 409 2034 409 
Q 2525 409 2770 889 
Q 3016 1369 3016 2328 
Q 3016 3291 2770 3770 
Q 2525 4250 2034 4250 
z
M 2034 4750 
Q 2819 4750 3233 4129 
Q 3647 3509 3647 2328 
Q 3647 1150 3233 529 
Q 2819 -91 2034 -91 
Q 1250 -91 836 529 
Q 422 1150 422 2328 
Q 422 3509 836 4129 
Q 1250 4750 2034 4750 
z
" transform="scale(0.015625)"/>
        <path id="DejaVuSans-3" transform="scale(0.015625)"/>
        <path id="DejaVuSans-2a" d="M 3809 666 
L 3809 1919 
L 2778 1919 
L 2778 2438 
L 4434 2438 
L 4434 434 
Q 4069 175 3628 42 
Q 3188 -91 2688 -91 
Q 1594 -91 976 548 
Q 359 1188 359 2328 
Q 359 3472 976 4111 
Q 1594 4750 2688 4750 
Q 3144 4750 3555 4637 
Q 3966 4525 4313 4306 
L 4313 3634 
Q 3963 3931 3569 4081 
Q 3175 4231 2741 4231 
Q 1884 4231 1454 3753 
Q 1025 3275 1025 2328 
Q 1025 1384 1454 906 
Q 1884 428 2741 428 
Q 3075 428 3337 486 
Q 3600 544 3809 666 
z
" transform="scale(0.015625)"/>
        <path id="DejaVuSans-25" d="M 1259 2228 
L 1259 519 
L 2272 519 
Q 2781 519 3026 730 
Q 3272 941 3272 1375 
Q 3272 1813 3026 2020 
Q 2781 2228 2272 2228 
L 1259 2228 
z
M 1259 4147 
L 1259 2741 
L 2194 2741 
Q 2656 2741 2882 2914 
Q 3109 3088 3109 3444 
Q 3109 3797 2882 3972 
Q 2656 4147 2194 4147 
L 1259 4147 
z
M 628 4666 
L 2241 4666 
Q 2963 4666 3353 4366 
Q 3744 4066 3744 3513 
Q 3744 3084 3544 2831 
Q 3344 2578 2956 2516 
Q 3422 2416 3680 2098 
Q 3938 1781 3938 1306 
Q 3938 681 3513 340 
Q 3088 0 2303 0 
L 628 0 
L 628 4666 
z
" transform="scale(0.015625)"/>
       </defs>
       <use xlink:href="#DejaVuSans-14"/>
       <use xlink:href="#DejaVuSans-13" transform="translate(63.625 0)"/>
       <use xlink:href="#DejaVuSans-3" transform="translate(127.25 0)"/>
       <use xlink:href="#DejaVuSans-2a" transform="translate(159.03125 0)"/>
       <use xlink:href="#DejaVuSans-25" transform="translate(236.515625 0)"/>
      </g>
     </g>
    </g>
    <g id="xtick_2">
     <g id="line2d_3">
      <path d="M 232.833902 309.330711 
L 232.833902 79.457891 
" clip-path="url(#p74cb538030)" style="fill: none; stroke: #dedede; stroke-width: 0.7; stroke-linecap: square"/>
     </g>
     <g id="line2d_4"/>
     <g id="text_2">
      <!-- 100 GB -->
      <g style="fill: #6b6b6b" transform="translate(214.396402 320.428367) scale(0.1 -0.1)">
       <use xlink:href="#DejaVuSans-14"/>
       <use xlink:href="#DejaVuSans-13" transform="translate(63.625 0)"/>
       <use xlink:href="#DejaVuSans-13" transform="translate(127.25 0)"/>
       <use xlink:href="#DejaVuSans-3" transform="translate(190.875 0)"/>
       <use xlink:href="#DejaVuSans-2a" transform="translate(222.65625 0)"/>
       <use xlink:href="#DejaVuSans-25" transform="translate(300.140625 0)"/>
      </g>
     </g>
    </g>
    <g id="xtick_3">
     <g id="line2d_5">
      <path d="M 347.780053 309.330711 
L 347.780053 79.457891 
" clip-path="url(#p74cb538030)" style="fill: none; stroke: #dedede; stroke-width: 0.7; stroke-linecap: square"/>
     </g>
     <g id="line2d_6"/>
     <g id="text_3">
      <!-- 1 TB -->
      <g style="fill: #6b6b6b" transform="translate(336.525366 320.428367) scale(0.1 -0.1)">
       <defs>
        <path id="DejaVuSans-37" d="M -19 4666 
L 3928 4666 
L 3928 4134 
L 2272 4134 
L 2272 0 
L 1638 0 
L 1638 4134 
L -19 4134 
L -19 4666 
z
" transform="scale(0.015625)"/>
       </defs>
       <use xlink:href="#DejaVuSans-14"/>
       <use xlink:href="#DejaVuSans-3" transform="translate(63.625 0)"/>
       <use xlink:href="#DejaVuSans-37" transform="translate(95.40625 0)"/>
       <use xlink:href="#DejaVuSans-25" transform="translate(156.484375 0)"/>
      </g>
     </g>
    </g>
    <g id="xtick_4">
     <g id="line2d_7">
      <path d="M 462.726205 309.330711 
L 462.726205 79.457891 
" clip-path="url(#p74cb538030)" style="fill: none; stroke: #dedede; stroke-width: 0.7; stroke-linecap: square"/>
     </g>
     <g id="line2d_8"/>
     <g id="text_4">
      <!-- 10 TB -->
      <g style="fill: #6b6b6b" transform="translate(448.290268 320.428367) scale(0.1 -0.1)">
       <use xlink:href="#DejaVuSans-14"/>
       <use xlink:href="#DejaVuSans-13" transform="translate(63.625 0)"/>
       <use xlink:href="#DejaVuSans-3" transform="translate(127.25 0)"/>
       <use xlink:href="#DejaVuSans-37" transform="translate(159.03125 0)"/>
       <use xlink:href="#DejaVuSans-25" transform="translate(220.109375 0)"/>
      </g>
     </g>
    </g>
    <g id="xtick_5">
     <g id="line2d_9">
      <path d="M 577.672357 309.330711 
L 577.672357 79.457891 
" clip-path="url(#p74cb538030)" style="fill: none; stroke: #dedede; stroke-width: 0.7; stroke-linecap: square"/>
     </g>
     <g id="line2d_10"/>
     <g id="text_5">
      <!-- 100 TB -->
      <g style="fill: #6b6b6b" transform="translate(560.055169 320.428367) scale(0.1 -0.1)">
       <use xlink:href="#DejaVuSans-14"/>
       <use xlink:href="#DejaVuSans-13" transform="translate(63.625 0)"/>
       <use xlink:href="#DejaVuSans-13" transform="translate(127.25 0)"/>
       <use xlink:href="#DejaVuSans-3" transform="translate(190.875 0)"/>
       <use xlink:href="#DejaVuSans-37" transform="translate(222.65625 0)"/>
       <use xlink:href="#DejaVuSans-25" transform="translate(283.734375 0)"/>
      </g>
     </g>
    </g>
    <g id="xtick_6">
     <g id="line2d_11">
      <path d="M 692.618508 309.330711 
L 692.618508 79.457891 
" clip-path="url(#p74cb538030)" style="fill: none; stroke: #dedede; stroke-width: 0.7; stroke-linecap: square"/>
     </g>
     <g id="line2d_12"/>
     <g id="text_6">
      <!-- 1 PB -->
      <g style="fill: #6b6b6b" transform="translate(681.402883 320.428367) scale(0.1 -0.1)">
       <defs>
        <path id="DejaVuSans-33" d="M 1259 4147 
L 1259 2394 
L 2053 2394 
Q 2494 2394 2734 2622 
Q 2975 2850 2975 3272 
Q 2975 3691 2734 3919 
Q 2494 4147 2053 4147 
L 1259 4147 
z
M 628 4666 
L 2053 4666 
Q 2838 4666 3239 4311 
Q 3641 3956 3641 3272 
Q 3641 2581 3239 2228 
Q 2838 1875 2053 1875 
L 1259 1875 
L 1259 0 
L 628 0 
L 628 4666 
z
" transform="scale(0.015625)"/>
       </defs>
       <use xlink:href="#DejaVuSans-14"/>
       <use xlink:href="#DejaVuSans-3" transform="translate(63.625 0)"/>
       <use xlink:href="#DejaVuSans-33" transform="translate(95.40625 0)"/>
       <use xlink:href="#DejaVuSans-25" transform="translate(155.703125 0)"/>
      </g>
     </g>
    </g>
    <g id="xtick_7">
     <g id="line2d_13">
      <defs>
       <path id="mabd2e13032" d="M 0 0 
L 0 2 
" style="stroke: #6b6b6b; stroke-width: 0.6"/>
      </defs>
      <g>
       <use xlink:href="#mabd2e13032" x="152.48999" y="309.330711" style="fill: #6b6b6b; stroke: #6b6b6b; stroke-width: 0.6"/>
      </g>
     </g>
    </g>
    <g id="xtick_8">
     <g id="line2d_14">
      <g>
       <use xlink:href="#mabd2e13032" x="172.731002" y="309.330711" style="fill: #6b6b6b; stroke: #6b6b6b; stroke-width: 0.6"/>
      </g>
     </g>
    </g>
    <g id="xtick_9">
     <g id="line2d_15">
      <g>
       <use xlink:href="#mabd2e13032" x="187.092229" y="309.330711" style="fill: #6b6b6b; stroke: #6b6b6b; stroke-width: 0.6"/>
      </g>
     </g>
    </g>
    <g id="xtick_10">
     <g id="line2d_16">
      <g>
       <use xlink:href="#mabd2e13032" x="198.231662" y="309.330711" style="fill: #6b6b6b; stroke: #6b6b6b; stroke-width: 0.6"/>
      </g>
     </g>
    </g>
    <g id="xtick_11">
     <g id="line2d_17">
      <g>
       <use xlink:href="#mabd2e13032" x="207.333242" y="309.330711" style="fill: #6b6b6b; stroke: #6b6b6b; stroke-width: 0.6"/>
      </g>
     </g>
    </g>
    <g id="xtick_12">
     <g id="line2d_18">
      <g>
       <use xlink:href="#mabd2e13032" x="215.028517" y="309.330711" style="fill: #6b6b6b; stroke: #6b6b6b; stroke-width: 0.6"/>
      </g>
     </g>
    </g>
    <g id="xtick_13">
     <g id="line2d_19">
      <g>
       <use xlink:href="#mabd2e13032" x="221.694469" y="309.330711" style="fill: #6b6b6b; stroke: #6b6b6b; stroke-width: 0.6"/>
      </g>
     </g>
    </g>
    <g id="xtick_14">
     <g id="line2d_20">
      <g>
       <use xlink:href="#mabd2e13032" x="227.574254" y="309.330711" style="fill: #6b6b6b; stroke: #6b6b6b; stroke-width: 0.6"/>
      </g>
     </g>
    </g>
    <g id="xtick_15">
     <g id="line2d_21">
      <g>
       <use xlink:href="#mabd2e13032" x="267.436141" y="309.330711" style="fill: #6b6b6b; stroke: #6b6b6b; stroke-width: 0.6"/>
      </g>
     </g>
    </g>
    <g id="xtick_16">
     <g id="line2d_22">
      <g>
       <use xlink:href="#mabd2e13032" x="287.677154" y="309.330711" style="fill: #6b6b6b; stroke: #6b6b6b; stroke-width: 0.6"/>
      </g>
     </g>
    </g>
    <g id="xtick_17">
     <g id="line2d_23">
      <g>
       <use xlink:href="#mabd2e13032" x="302.038381" y="309.330711" style="fill: #6b6b6b; stroke: #6b6b6b; stroke-width: 0.6"/>
      </g>
     </g>
    </g>
    <g id="xtick_18">
     <g id="line2d_24">
      <g>
       <use xlink:href="#mabd2e13032" x="313.177814" y="309.330711" style="fill: #6b6b6b; stroke: #6b6b6b; stroke-width: 0.6"/>
      </g>
     </g>
    </g>
    <g id="xtick_19">
     <g id="line2d_25">
      <g>
       <use xlink:href="#mabd2e13032" x="322.279393" y="309.330711" style="fill: #6b6b6b; stroke: #6b6b6b; stroke-width: 0.6"/>
      </g>
     </g>
    </g>
    <g id="xtick_20">
     <g id="line2d_26">
      <g>
       <use xlink:href="#mabd2e13032" x="329.974669" y="309.330711" style="fill: #6b6b6b; stroke: #6b6b6b; stroke-width: 0.6"/>
      </g>
     </g>
    </g>
    <g id="xtick_21">
     <g id="line2d_27">
      <g>
       <use xlink:href="#mabd2e13032" x="336.64062" y="309.330711" style="fill: #6b6b6b; stroke: #6b6b6b; stroke-width: 0.6"/>
      </g>
     </g>
    </g>
    <g id="xtick_22">
     <g id="line2d_28">
      <g>
       <use xlink:href="#mabd2e13032" x="342.520406" y="309.330711" style="fill: #6b6b6b; stroke: #6b6b6b; stroke-width: 0.6"/>
      </g>
     </g>
    </g>
    <g id="xtick_23">
     <g id="line2d_29">
      <g>
       <use xlink:href="#mabd2e13032" x="382.382293" y="309.330711" style="fill: #6b6b6b; stroke: #6b6b6b; stroke-width: 0.6"/>
      </g>
     </g>
    </g>
    <g id="xtick_24">
     <g id="line2d_30">
      <g>
       <use xlink:href="#mabd2e13032" x="402.623305" y="309.330711" style="fill: #6b6b6b; stroke: #6b6b6b; stroke-width: 0.6"/>
      </g>
     </g>
    </g>
    <g id="xtick_25">
     <g id="line2d_31">
      <g>
       <use xlink:href="#mabd2e13032" x="416.984532" y="309.330711" style="fill: #6b6b6b; stroke: #6b6b6b; stroke-width: 0.6"/>
      </g>
     </g>
    </g>
    <g id="xtick_26">
     <g id="line2d_32">
      <g>
       <use xlink:href="#mabd2e13032" x="428.123965" y="309.330711" style="fill: #6b6b6b; stroke: #6b6b6b; stroke-width: 0.6"/>
      </g>
     </g>
    </g>
    <g id="xtick_27">
     <g id="line2d_33">
      <g>
       <use xlink:href="#mabd2e13032" x="437.225545" y="309.330711" style="fill: #6b6b6b; stroke: #6b6b6b; stroke-width: 0.6"/>
      </g>
     </g>
    </g>
    <g id="xtick_28">
     <g id="line2d_34">
      <g>
       <use xlink:href="#mabd2e13032" x="444.920821" y="309.330711" style="fill: #6b6b6b; stroke: #6b6b6b; stroke-width: 0.6"/>
      </g>
     </g>
    </g>
    <g id="xtick_29">
     <g id="line2d_35">
      <g>
       <use xlink:href="#mabd2e13032" x="451.586772" y="309.330711" style="fill: #6b6b6b; stroke: #6b6b6b; stroke-width: 0.6"/>
      </g>
     </g>
    </g>
    <g id="xtick_30">
     <g id="line2d_36">
      <g>
       <use xlink:href="#mabd2e13032" x="457.466558" y="309.330711" style="fill: #6b6b6b; stroke: #6b6b6b; stroke-width: 0.6"/>
      </g>
     </g>
    </g>
    <g id="xtick_31">
     <g id="line2d_37">
      <g>
       <use xlink:href="#mabd2e13032" x="497.328445" y="309.330711" style="fill: #6b6b6b; stroke: #6b6b6b; stroke-width: 0.6"/>
      </g>
     </g>
    </g>
    <g id="xtick_32">
     <g id="line2d_38">
      <g>
       <use xlink:href="#mabd2e13032" x="517.569457" y="309.330711" style="fill: #6b6b6b; stroke: #6b6b6b; stroke-width: 0.6"/>
      </g>
     </g>
    </g>
    <g id="xtick_33">
     <g id="line2d_39">
      <g>
       <use xlink:href="#mabd2e13032" x="531.930684" y="309.330711" style="fill: #6b6b6b; stroke: #6b6b6b; stroke-width: 0.6"/>
      </g>
     </g>
    </g>
    <g id="xtick_34">
     <g id="line2d_40">
      <g>
       <use xlink:href="#mabd2e13032" x="543.070117" y="309.330711" style="fill: #6b6b6b; stroke: #6b6b6b; stroke-width: 0.6"/>
      </g>
     </g>
    </g>
    <g id="xtick_35">
     <g id="line2d_41">
      <g>
       <use xlink:href="#mabd2e13032" x="552.171697" y="309.330711" style="fill: #6b6b6b; stroke: #6b6b6b; stroke-width: 0.6"/>
      </g>
     </g>
    </g>
    <g id="xtick_36">
     <g id="line2d_42">
      <g>
       <use xlink:href="#mabd2e13032" x="559.866972" y="309.330711" style="fill: #6b6b6b; stroke: #6b6b6b; stroke-width: 0.6"/>
      </g>
     </g>
    </g>
    <g id="xtick_37">
     <g id="line2d_43">
      <g>
       <use xlink:href="#mabd2e13032" x="566.532924" y="309.330711" style="fill: #6b6b6b; stroke: #6b6b6b; stroke-width: 0.6"/>
      </g>
     </g>
    </g>
    <g id="xtick_38">
     <g id="line2d_44">
      <g>
       <use xlink:href="#mabd2e13032" x="572.412709" y="309.330711" style="fill: #6b6b6b; stroke: #6b6b6b; stroke-width: 0.6"/>
      </g>
     </g>
    </g>
    <g id="xtick_39">
     <g id="line2d_45">
      <g>
       <use xlink:href="#mabd2e13032" x="612.274596" y="309.330711" style="fill: #6b6b6b; stroke: #6b6b6b; stroke-width: 0.6"/>
      </g>
     </g>
    </g>
    <g id="xtick_40">
     <g id="line2d_46">
      <g>
       <use xlink:href="#mabd2e13032" x="632.515609" y="309.330711" style="fill: #6b6b6b; stroke: #6b6b6b; stroke-width: 0.6"/>
      </g>
     </g>
    </g>
    <g id="xtick_41">
     <g id="line2d_47">
      <g>
       <use xlink:href="#mabd2e13032" x="646.876836" y="309.330711" style="fill: #6b6b6b; stroke: #6b6b6b; stroke-width: 0.6"/>
      </g>
     </g>
    </g>
    <g id="xtick_42">
     <g id="line2d_48">
      <g>
       <use xlink:href="#mabd2e13032" x="658.016269" y="309.330711" style="fill: #6b6b6b; stroke: #6b6b6b; stroke-width: 0.6"/>
      </g>
     </g>
    </g>
    <g id="xtick_43">
     <g id="line2d_49">
      <g>
       <use xlink:href="#mabd2e13032" x="667.117848" y="309.330711" style="fill: #6b6b6b; stroke: #6b6b6b; stroke-width: 0.6"/>
      </g>
     </g>
    </g>
    <g id="xtick_44">
     <g id="line2d_50">
      <g>
       <use xlink:href="#mabd2e13032" x="674.813124" y="309.330711" style="fill: #6b6b6b; stroke: #6b6b6b; stroke-width: 0.6"/>
      </g>
     </g>
    </g>
    <g id="xtick_45">
     <g id="line2d_51">
      <g>
       <use xlink:href="#mabd2e13032" x="681.479075" y="309.330711" style="fill: #6b6b6b; stroke: #6b6b6b; stroke-width: 0.6"/>
      </g>
     </g>
    </g>
    <g id="xtick_46">
     <g id="line2d_52">
      <g>
       <use xlink:href="#mabd2e13032" x="687.358861" y="309.330711" style="fill: #6b6b6b; stroke: #6b6b6b; stroke-width: 0.6"/>
      </g>
     </g>
    </g>
    <g id="xtick_47">
     <g id="line2d_53">
      <g>
       <use xlink:href="#mabd2e13032" x="727.220748" y="309.330711" style="fill: #6b6b6b; stroke: #6b6b6b; stroke-width: 0.6"/>
      </g>
     </g>
    </g>
    <g id="xtick_48">
     <g id="line2d_54">
      <g>
       <use xlink:href="#mabd2e13032" x="747.46176" y="309.330711" style="fill: #6b6b6b; stroke: #6b6b6b; stroke-width: 0.6"/>
      </g>
     </g>
    </g>
    <g id="xtick_49">
     <g id="line2d_55">
      <g>
       <use xlink:href="#mabd2e13032" x="761.822987" y="309.330711" style="fill: #6b6b6b; stroke: #6b6b6b; stroke-width: 0.6"/>
      </g>
     </g>
    </g>
    <g id="xtick_50">
     <g id="line2d_56">
      <g>
       <use xlink:href="#mabd2e13032" x="772.96242" y="309.330711" style="fill: #6b6b6b; stroke: #6b6b6b; stroke-width: 0.6"/>
      </g>
     </g>
    </g>
    <g id="xtick_51">
     <g id="line2d_57">
      <g>
       <use xlink:href="#mabd2e13032" x="782.064" y="309.330711" style="fill: #6b6b6b; stroke: #6b6b6b; stroke-width: 0.6"/>
      </g>
     </g>
    </g>
    <g id="text_7">
     <!-- Training state at 16 bytes per parameter, the constant measured on this run (log scale) -->
     <g style="fill: #6b6b6b" transform="translate(230.808687 340.429148) scale(0.1 -0.1)">
      <defs>
       <path id="DejaVuSans-55" d="M 2631 2963 
Q 2534 3019 2420 3045 
Q 2306 3072 2169 3072 
Q 1681 3072 1420 2755 
Q 1159 2438 1159 1844 
L 1159 0 
L 581 0 
L 581 3500 
L 1159 3500 
L 1159 2956 
Q 1341 3275 1631 3429 
Q 1922 3584 2338 3584 
Q 2397 3584 2469 3576 
Q 2541 3569 2628 3553 
L 2631 2963 
z
" transform="scale(0.015625)"/>
       <path id="DejaVuSans-44" d="M 2194 1759 
Q 1497 1759 1228 1600 
Q 959 1441 959 1056 
Q 959 750 1161 570 
Q 1363 391 1709 391 
Q 2188 391 2477 730 
Q 2766 1069 2766 1631 
L 2766 1759 
L 2194 1759 
z
M 3341 1997 
L 3341 0 
L 2766 0 
L 2766 531 
Q 2569 213 2275 61 
Q 1981 -91 1556 -91 
Q 1019 -91 701 211 
Q 384 513 384 1019 
Q 384 1609 779 1909 
Q 1175 2209 1959 2209 
L 2766 2209 
L 2766 2266 
Q 2766 2663 2505 2880 
Q 2244 3097 1772 3097 
Q 1472 3097 1187 3025 
Q 903 2953 641 2809 
L 641 3341 
Q 956 3463 1253 3523 
Q 1550 3584 1831 3584 
Q 2591 3584 2966 3190 
Q 3341 2797 3341 1997 
z
" transform="scale(0.015625)"/>
       <path id="DejaVuSans-4c" d="M 603 3500 
L 1178 3500 
L 1178 0 
L 603 0 
L 603 3500 
z
M 603 4863 
L 1178 4863 
L 1178 4134 
L 603 4134 
L 603 4863 
z
" transform="scale(0.015625)"/>
       <path id="DejaVuSans-51" d="M 3513 2113 
L 3513 0 
L 2938 0 
L 2938 2094 
Q 2938 2591 2744 2837 
Q 2550 3084 2163 3084 
Q 1697 3084 1428 2787 
Q 1159 2491 1159 1978 
L 1159 0 
L 581 0 
L 581 3500 
L 1159 3500 
L 1159 2956 
Q 1366 3272 1645 3428 
Q 1925 3584 2291 3584 
Q 2894 3584 3203 3211 
Q 3513 2838 3513 2113 
z
" transform="scale(0.015625)"/>
       <path id="DejaVuSans-4a" d="M 2906 1791 
Q 2906 2416 2648 2759 
Q 2391 3103 1925 3103 
Q 1463 3103 1205 2759 
Q 947 2416 947 1791 
Q 947 1169 1205 825 
Q 1463 481 1925 481 
Q 2391 481 2648 825 
Q 2906 1169 2906 1791 
z
M 3481 434 
Q 3481 -459 3084 -895 
Q 2688 -1331 1869 -1331 
Q 1566 -1331 1297 -1286 
Q 1028 -1241 775 -1147 
L 775 -588 
Q 1028 -725 1275 -790 
Q 1522 -856 1778 -856 
Q 2344 -856 2625 -561 
Q 2906 -266 2906 331 
L 2906 616 
Q 2728 306 2450 153 
Q 2172 0 1784 0 
Q 1141 0 747 490 
Q 353 981 353 1791 
Q 353 2603 747 3093 
Q 1141 3584 1784 3584 
Q 2172 3584 2450 3431 
Q 2728 3278 2906 2969 
L 2906 3500 
L 3481 3500 
L 3481 434 
z
" transform="scale(0.015625)"/>
       <path id="DejaVuSans-56" d="M 2834 3397 
L 2834 2853 
Q 2591 2978 2328 3040 
Q 2066 3103 1784 3103 
Q 1356 3103 1142 2972 
Q 928 2841 928 2578 
Q 928 2378 1081 2264 
Q 1234 2150 1697 2047 
L 1894 2003 
Q 2506 1872 2764 1633 
Q 3022 1394 3022 966 
Q 3022 478 2636 193 
Q 2250 -91 1575 -91 
Q 1294 -91 989 -36 
Q 684 19 347 128 
L 347 722 
Q 666 556 975 473 
Q 1284 391 1588 391 
Q 1994 391 2212 530 
Q 2431 669 2431 922 
Q 2431 1156 2273 1281 
Q 2116 1406 1581 1522 
L 1381 1569 
Q 847 1681 609 1914 
Q 372 2147 372 2553 
Q 372 3047 722 3315 
Q 1072 3584 1716 3584 
Q 2034 3584 2315 3537 
Q 2597 3491 2834 3397 
z
" transform="scale(0.015625)"/>
       <path id="DejaVuSans-57" d="M 1172 4494 
L 1172 3500 
L 2356 3500 
L 2356 3053 
L 1172 3053 
L 1172 1153 
Q 1172 725 1289 603 
Q 1406 481 1766 481 
L 2356 481 
L 2356 0 
L 1766 0 
Q 1100 0 847 248 
Q 594 497 594 1153 
L 594 3053 
L 172 3053 
L 172 3500 
L 594 3500 
L 594 4494 
L 1172 4494 
z
" transform="scale(0.015625)"/>
       <path id="DejaVuSans-48" d="M 3597 1894 
L 3597 1613 
L 953 1613 
Q 991 1019 1311 708 
Q 1631 397 2203 397 
Q 2534 397 2845 478 
Q 3156 559 3463 722 
L 3463 178 
Q 3153 47 2828 -22 
Q 2503 -91 2169 -91 
Q 1331 -91 842 396 
Q 353 884 353 1716 
Q 353 2575 817 3079 
Q 1281 3584 2069 3584 
Q 2775 3584 3186 3129 
Q 3597 2675 3597 1894 
z
M 3022 2063 
Q 3016 2534 2758 2815 
Q 2500 3097 2075 3097 
Q 1594 3097 1305 2825 
Q 1016 2553 972 2059 
L 3022 2063 
z
" transform="scale(0.015625)"/>
       <path id="DejaVuSans-19" d="M 2113 2584 
Q 1688 2584 1439 2293 
Q 1191 2003 1191 1497 
Q 1191 994 1439 701 
Q 1688 409 2113 409 
Q 2538 409 2786 701 
Q 3034 994 3034 1497 
Q 3034 2003 2786 2293 
Q 2538 2584 2113 2584 
z
M 3366 4563 
L 3366 3988 
Q 3128 4100 2886 4159 
Q 2644 4219 2406 4219 
Q 1781 4219 1451 3797 
Q 1122 3375 1075 2522 
Q 1259 2794 1537 2939 
Q 1816 3084 2150 3084 
Q 2853 3084 3261 2657 
Q 3669 2231 3669 1497 
Q 3669 778 3244 343 
Q 2819 -91 2113 -91 
Q 1303 -91 875 529 
Q 447 1150 447 2328 
Q 447 3434 972 4092 
Q 1497 4750 2381 4750 
Q 2619 4750 2861 4703 
Q 3103 4656 3366 4563 
z
" transform="scale(0.015625)"/>
       <path id="DejaVuSans-45" d="M 3116 1747 
Q 3116 2381 2855 2742 
Q 2594 3103 2138 3103 
Q 1681 3103 1420 2742 
Q 1159 2381 1159 1747 
Q 1159 1113 1420 752 
Q 1681 391 2138 391 
Q 2594 391 2855 752 
Q 3116 1113 3116 1747 
z
M 1159 2969 
Q 1341 3281 1617 3432 
Q 1894 3584 2278 3584 
Q 2916 3584 3314 3078 
Q 3713 2572 3713 1747 
Q 3713 922 3314 415 
Q 2916 -91 2278 -91 
Q 1894 -91 1617 61 
Q 1341 213 1159 525 
L 1159 0 
L 581 0 
L 581 4863 
L 1159 4863 
L 1159 2969 
z
" transform="scale(0.015625)"/>
       <path id="DejaVuSans-5c" d="M 2059 -325 
Q 1816 -950 1584 -1140 
Q 1353 -1331 966 -1331 
L 506 -1331 
L 506 -850 
L 844 -850 
Q 1081 -850 1212 -737 
Q 1344 -625 1503 -206 
L 1606 56 
L 191 3500 
L 800 3500 
L 1894 763 
L 2988 3500 
L 3597 3500 
L 2059 -325 
z
" transform="scale(0.015625)"/>
       <path id="DejaVuSans-53" d="M 1159 525 
L 1159 -1331 
L 581 -1331 
L 581 3500 
L 1159 3500 
L 1159 2969 
Q 1341 3281 1617 3432 
Q 1894 3584 2278 3584 
Q 2916 3584 3314 3078 
Q 3713 2572 3713 1747 
Q 3713 922 3314 415 
Q 2916 -91 2278 -91 
Q 1894 -91 1617 61 
Q 1341 213 1159 525 
z
M 3116 1747 
Q 3116 2381 2855 2742 
Q 2594 3103 2138 3103 
Q 1681 3103 1420 2742 
Q 1159 2381 1159 1747 
Q 1159 1113 1420 752 
Q 1681 391 2138 391 
Q 2594 391 2855 752 
Q 3116 1113 3116 1747 
z
" transform="scale(0.015625)"/>
       <path id="DejaVuSans-50" d="M 3328 2828 
Q 3544 3216 3844 3400 
Q 4144 3584 4550 3584 
Q 5097 3584 5394 3201 
Q 5691 2819 5691 2113 
L 5691 0 
L 5113 0 
L 5113 2094 
Q 5113 2597 4934 2840 
Q 4756 3084 4391 3084 
Q 3944 3084 3684 2787 
Q 3425 2491 3425 1978 
L 3425 0 
L 2847 0 
L 2847 2094 
Q 2847 2600 2669 2842 
Q 2491 3084 2119 3084 
Q 1678 3084 1418 2786 
Q 1159 2488 1159 1978 
L 1159 0 
L 581 0 
L 581 3500 
L 1159 3500 
L 1159 2956 
Q 1356 3278 1631 3431 
Q 1906 3584 2284 3584 
Q 2666 3584 2933 3390 
Q 3200 3197 3328 2828 
z
" transform="scale(0.015625)"/>
       <path id="DejaVuSans-f" d="M 750 794 
L 1409 794 
L 1409 256 
L 897 -744 
L 494 -744 
L 750 256 
L 750 794 
z
" transform="scale(0.015625)"/>
       <path id="DejaVuSans-4b" d="M 3513 2113 
L 3513 0 
L 2938 0 
L 2938 2094 
Q 2938 2591 2744 2837 
Q 2550 3084 2163 3084 
Q 1697 3084 1428 2787 
Q 1159 2491 1159 1978 
L 1159 0 
L 581 0 
L 581 4863 
L 1159 4863 
L 1159 2956 
Q 1366 3272 1645 3428 
Q 1925 3584 2291 3584 
Q 2894 3584 3203 3211 
Q 3513 2838 3513 2113 
z
" transform="scale(0.015625)"/>
       <path id="DejaVuSans-46" d="M 3122 3366 
L 3122 2828 
Q 2878 2963 2633 3030 
Q 2388 3097 2138 3097 
Q 1578 3097 1268 2742 
Q 959 2388 959 1747 
Q 959 1106 1268 751 
Q 1578 397 2138 397 
Q 2388 397 2633 464 
Q 2878 531 3122 666 
L 3122 134 
Q 2881 22 2623 -34 
Q 2366 -91 2075 -91 
Q 1284 -91 818 406 
Q 353 903 353 1747 
Q 353 2603 823 3093 
Q 1294 3584 2113 3584 
Q 2378 3584 2631 3529 
Q 2884 3475 3122 3366 
z
" transform="scale(0.015625)"/>
       <path id="DejaVuSans-52" d="M 1959 3097 
Q 1497 3097 1228 2736 
Q 959 2375 959 1747 
Q 959 1119 1226 758 
Q 1494 397 1959 397 
Q 2419 397 2687 759 
Q 2956 1122 2956 1747 
Q 2956 2369 2687 2733 
Q 2419 3097 1959 3097 
z
M 1959 3584 
Q 2709 3584 3137 3096 
Q 3566 2609 3566 1747 
Q 3566 888 3137 398 
Q 2709 -91 1959 -91 
Q 1206 -91 779 398 
Q 353 888 353 1747 
Q 353 2609 779 3096 
Q 1206 3584 1959 3584 
z
" transform="scale(0.015625)"/>
       <path id="DejaVuSans-58" d="M 544 1381 
L 544 3500 
L 1119 3500 
L 1119 1403 
Q 1119 906 1312 657 
Q 1506 409 1894 409 
Q 2359 409 2629 706 
Q 2900 1003 2900 1516 
L 2900 3500 
L 3475 3500 
L 3475 0 
L 2900 0 
L 2900 538 
Q 2691 219 2414 64 
Q 2138 -91 1772 -91 
Q 1169 -91 856 284 
Q 544 659 544 1381 
z
M 1991 3584 
L 1991 3584 
z
" transform="scale(0.015625)"/>
       <path id="DejaVuSans-47" d="M 2906 2969 
L 2906 4863 
L 3481 4863 
L 3481 0 
L 2906 0 
L 2906 525 
Q 2725 213 2448 61 
Q 2172 -91 1784 -91 
Q 1150 -91 751 415 
Q 353 922 353 1747 
Q 353 2572 751 3078 
Q 1150 3584 1784 3584 
Q 2172 3584 2448 3432 
Q 2725 3281 2906 2969 
z
M 947 1747 
Q 947 1113 1208 752 
Q 1469 391 1925 391 
Q 2381 391 2643 752 
Q 2906 1113 2906 1747 
Q 2906 2381 2643 2742 
Q 2381 3103 1925 3103 
Q 1469 3103 1208 2742 
Q 947 2381 947 1747 
z
" transform="scale(0.015625)"/>
       <path id="DejaVuSans-b" d="M 1984 4856 
Q 1566 4138 1362 3434 
Q 1159 2731 1159 2009 
Q 1159 1288 1364 580 
Q 1569 -128 1984 -844 
L 1484 -844 
Q 1016 -109 783 600 
Q 550 1309 550 2009 
Q 550 2706 781 3412 
Q 1013 4119 1484 4856 
L 1984 4856 
z
" transform="scale(0.015625)"/>
       <path id="DejaVuSans-4f" d="M 603 4863 
L 1178 4863 
L 1178 0 
L 603 0 
L 603 4863 
z
" transform="scale(0.015625)"/>
       <path id="DejaVuSans-c" d="M 513 4856 
L 1013 4856 
Q 1481 4119 1714 3412 
Q 1947 2706 1947 2009 
Q 1947 1309 1714 600 
Q 1481 -109 1013 -844 
L 513 -844 
Q 928 -128 1133 580 
Q 1338 1288 1338 2009 
Q 1338 2731 1133 3434 
Q 928 4138 513 4856 
z
" transform="scale(0.015625)"/>
      </defs>
      <use xlink:href="#DejaVuSans-37"/>
      <use xlink:href="#DejaVuSans-55" transform="translate(46.375 0)"/>
      <use xlink:href="#DejaVuSans-44" transform="translate(87.484375 0)"/>
      <use xlink:href="#DejaVuSans-4c" transform="translate(148.765625 0)"/>
      <use xlink:href="#DejaVuSans-51" transform="translate(176.546875 0)"/>
      <use xlink:href="#DejaVuSans-4c" transform="translate(239.921875 0)"/>
      <use xlink:href="#DejaVuSans-51" transform="translate(267.703125 0)"/>
      <use xlink:href="#DejaVuSans-4a" transform="translate(331.078125 0)"/>
      <use xlink:href="#DejaVuSans-3" transform="translate(394.5625 0)"/>
      <use xlink:href="#DejaVuSans-56" transform="translate(426.34375 0)"/>
      <use xlink:href="#DejaVuSans-57" transform="translate(478.4375 0)"/>
      <use xlink:href="#DejaVuSans-44" transform="translate(517.640625 0)"/>
      <use xlink:href="#DejaVuSans-57" transform="translate(578.921875 0)"/>
      <use xlink:href="#DejaVuSans-48" transform="translate(618.125 0)"/>
      <use xlink:href="#DejaVuSans-3" transform="translate(679.65625 0)"/>
      <use xlink:href="#DejaVuSans-44" transform="translate(711.4375 0)"/>
      <use xlink:href="#DejaVuSans-57" transform="translate(772.71875 0)"/>
      <use xlink:href="#DejaVuSans-3" transform="translate(811.921875 0)"/>
      <use xlink:href="#DejaVuSans-14" transform="translate(843.703125 0)"/>
      <use xlink:href="#DejaVuSans-19" transform="translate(907.328125 0)"/>
      <use xlink:href="#DejaVuSans-3" transform="translate(970.953125 0)"/>
      <use xlink:href="#DejaVuSans-45" transform="translate(1002.734375 0)"/>
      <use xlink:href="#DejaVuSans-5c" transform="translate(1066.21875 0)"/>
      <use xlink:href="#DejaVuSans-57" transform="translate(1125.40625 0)"/>
      <use xlink:href="#DejaVuSans-48" transform="translate(1164.609375 0)"/>
      <use xlink:href="#DejaVuSans-56" transform="translate(1226.140625 0)"/>
      <use xlink:href="#DejaVuSans-3" transform="translate(1278.234375 0)"/>
      <use xlink:href="#DejaVuSans-53" transform="translate(1310.015625 0)"/>
      <use xlink:href="#DejaVuSans-48" transform="translate(1373.5 0)"/>
      <use xlink:href="#DejaVuSans-55" transform="translate(1435.03125 0)"/>
      <use xlink:href="#DejaVuSans-3" transform="translate(1476.140625 0)"/>
      <use xlink:href="#DejaVuSans-53" transform="translate(1507.921875 0)"/>
      <use xlink:href="#DejaVuSans-44" transform="translate(1571.40625 0)"/>
      <use xlink:href="#DejaVuSans-55" transform="translate(1632.6875 0)"/>
      <use xlink:href="#DejaVuSans-44" transform="translate(1673.796875 0)"/>
      <use xlink:href="#DejaVuSans-50" transform="translate(1735.078125 0)"/>
      <use xlink:href="#DejaVuSans-48" transform="translate(1832.484375 0)"/>
      <use xlink:href="#DejaVuSans-57" transform="translate(1894.015625 0)"/>
      <use xlink:href="#DejaVuSans-48" transform="translate(1933.21875 0)"/>
      <use xlink:href="#DejaVuSans-55" transform="translate(1994.75 0)"/>
      <use xlink:href="#DejaVuSans-f" transform="translate(2035.859375 0)"/>
      <use xlink:href="#DejaVuSans-3" transform="translate(2067.640625 0)"/>
      <use xlink:href="#DejaVuSans-57" transform="translate(2099.421875 0)"/>
      <use xlink:href="#DejaVuSans-4b" transform="translate(2138.625 0)"/>
      <use xlink:href="#DejaVuSans-48" transform="translate(2202 0)"/>
      <use xlink:href="#DejaVuSans-3" transform="translate(2263.53125 0)"/>
      <use xlink:href="#DejaVuSans-46" transform="translate(2295.3125 0)"/>
      <use xlink:href="#DejaVuSans-52" transform="translate(2350.296875 0)"/>
      <use xlink:href="#DejaVuSans-51" transform="translate(2411.484375 0)"/>
      <use xlink:href="#DejaVuSans-56" transform="translate(2474.859375 0)"/>
      <use xlink:href="#DejaVuSans-57" transform="translate(2526.953125 0)"/>
      <use xlink:href="#DejaVuSans-44" transform="translate(2566.15625 0)"/>
      <use xlink:href="#DejaVuSans-51" transform="translate(2627.4375 0)"/>
      <use xlink:href="#DejaVuSans-57" transform="translate(2690.8125 0)"/>
      <use xlink:href="#DejaVuSans-3" transform="translate(2730.015625 0)"/>
      <use xlink:href="#DejaVuSans-50" transform="translate(2761.796875 0)"/>
      <use xlink:href="#DejaVuSans-48" transform="translate(2859.203125 0)"/>
      <use xlink:href="#DejaVuSans-44" transform="translate(2920.734375 0)"/>
      <use xlink:href="#DejaVuSans-56" transform="translate(2982.015625 0)"/>
      <use xlink:href="#DejaVuSans-58" transform="translate(3034.109375 0)"/>
      <use xlink:href="#DejaVuSans-55" transform="translate(3097.484375 0)"/>
      <use xlink:href="#DejaVuSans-48" transform="translate(3136.390625 0)"/>
      <use xlink:href="#DejaVuSans-47" transform="translate(3197.921875 0)"/>
      <use xlink:href="#DejaVuSans-3" transform="translate(3261.40625 0)"/>
      <use xlink:href="#DejaVuSans-52" transform="translate(3293.1875 0)"/>
      <use xlink:href="#DejaVuSans-51" transform="translate(3354.375 0)"/>
      <use xlink:href="#DejaVuSans-3" transform="translate(3417.75 0)"/>
      <use xlink:href="#DejaVuSans-57" transform="translate(3449.53125 0)"/>
      <use xlink:href="#DejaVuSans-4b" transform="translate(3488.734375 0)"/>
      <use xlink:href="#DejaVuSans-4c" transform="translate(3552.109375 0)"/>
      <use xlink:href="#DejaVuSans-56" transform="translate(3579.890625 0)"/>
      <use xlink:href="#DejaVuSans-3" transform="translate(3631.984375 0)"/>
      <use xlink:href="#DejaVuSans-55" transform="translate(3663.765625 0)"/>
      <use xlink:href="#DejaVuSans-58" transform="translate(3704.875 0)"/>
      <use xlink:href="#DejaVuSans-51" transform="translate(3768.25 0)"/>
      <use xlink:href="#DejaVuSans-3" transform="translate(3831.625 0)"/>
      <use xlink:href="#DejaVuSans-b" transform="translate(3863.40625 0)"/>
      <use xlink:href="#DejaVuSans-4f" transform="translate(3902.421875 0)"/>
      <use xlink:href="#DejaVuSans-52" transform="translate(3930.203125 0)"/>
      <use xlink:href="#DejaVuSans-4a" transform="translate(3991.390625 0)"/>
      <use xlink:href="#DejaVuSans-3" transform="translate(4054.875 0)"/>
      <use xlink:href="#DejaVuSans-56" transform="translate(4086.65625 0)"/>
      <use xlink:href="#DejaVuSans-46" transform="translate(4138.75 0)"/>
      <use xlink:href="#DejaVuSans-44" transform="translate(4193.734375 0)"/>
      <use xlink:href="#DejaVuSans-4f" transform="translate(4255.015625 0)"/>
      <use xlink:href="#DejaVuSans-48" transform="translate(4282.796875 0)"/>
      <use xlink:href="#DejaVuSans-c" transform="translate(4344.328125 0)"/>
     </g>
    </g>
   </g>
   <g id="matplotlib.axis_2">
    <g id="ytick_1">
     <g id="line2d_58"/>
     <g id="text_8">
      <!-- Qwen3-4B -->
      <g style="fill: #6b6b6b" transform="translate(60.066656 111.72597) scale(0.105 -0.105)">
       <defs>
        <path id="DejaVuSans-34" d="M 2522 4238 
Q 1834 4238 1429 3725 
Q 1025 3213 1025 2328 
Q 1025 1447 1429 934 
Q 1834 422 2522 422 
Q 3209 422 3611 934 
Q 4013 1447 4013 2328 
Q 4013 3213 3611 3725 
Q 3209 4238 2522 4238 
z
M 3406 84 
L 4238 -825 
L 3475 -825 
L 2784 -78 
Q 2681 -84 2626 -87 
Q 2572 -91 2522 -91 
Q 1538 -91 948 567 
Q 359 1225 359 2328 
Q 359 3434 948 4092 
Q 1538 4750 2522 4750 
Q 3503 4750 4090 4092 
Q 4678 3434 4678 2328 
Q 4678 1516 4351 937 
Q 4025 359 3406 84 
z
" transform="scale(0.015625)"/>
        <path id="DejaVuSans-5a" d="M 269 3500 
L 844 3500 
L 1563 769 
L 2278 3500 
L 2956 3500 
L 3675 769 
L 4391 3500 
L 4966 3500 
L 4050 0 
L 3372 0 
L 2619 2869 
L 1863 0 
L 1184 0 
L 269 3500 
z
" transform="scale(0.015625)"/>
        <path id="DejaVuSans-16" d="M 2597 2516 
Q 3050 2419 3304 2112 
Q 3559 1806 3559 1356 
Q 3559 666 3084 287 
Q 2609 -91 1734 -91 
Q 1441 -91 1130 -33 
Q 819 25 488 141 
L 488 750 
Q 750 597 1062 519 
Q 1375 441 1716 441 
Q 2309 441 2620 675 
Q 2931 909 2931 1356 
Q 2931 1769 2642 2001 
Q 2353 2234 1838 2234 
L 1294 2234 
L 1294 2753 
L 1863 2753 
Q 2328 2753 2575 2939 
Q 2822 3125 2822 3475 
Q 2822 3834 2567 4026 
Q 2313 4219 1838 4219 
Q 1578 4219 1281 4162 
Q 984 4106 628 3988 
L 628 4550 
Q 988 4650 1302 4700 
Q 1616 4750 1894 4750 
Q 2613 4750 3031 4423 
Q 3450 4097 3450 3541 
Q 3450 3153 3228 2886 
Q 3006 2619 2597 2516 
z
" transform="scale(0.015625)"/>
        <path id="DejaVuSans-10" d="M 313 2009 
L 1997 2009 
L 1997 1497 
L 313 1497 
L 313 2009 
z
" transform="scale(0.015625)"/>
        <path id="DejaVuSans-17" d="M 2419 4116 
L 825 1625 
L 2419 1625 
L 2419 4116 
z
M 2253 4666 
L 3047 4666 
L 3047 1625 
L 3713 1625 
L 3713 1100 
L 3047 1100 
L 3047 0 
L 2419 0 
L 2419 1100 
L 313 1100 
L 313 1709 
L 2253 4666 
z
" transform="scale(0.015625)"/>
       </defs>
       <use xlink:href="#DejaVuSans-34"/>
       <use xlink:href="#DejaVuSans-5a" transform="translate(78.71875 0)"/>
       <use xlink:href="#DejaVuSans-48" transform="translate(160.5 0)"/>
       <use xlink:href="#DejaVuSans-51" transform="translate(222.03125 0)"/>
       <use xlink:href="#DejaVuSans-16" transform="translate(285.40625 0)"/>
       <use xlink:href="#DejaVuSans-10" transform="translate(349.03125 0)"/>
       <use xlink:href="#DejaVuSans-17" transform="translate(385.109375 0)"/>
       <use xlink:href="#DejaVuSans-25" transform="translate(448.734375 0)"/>
      </g>
      <!-- this run -->
      <g style="fill: #6b6b6b" transform="translate(74.267906 124.328841) scale(0.105 -0.105)">
       <use xlink:href="#DejaVuSans-57"/>
       <use xlink:href="#DejaVuSans-4b" transform="translate(39.203125 0)"/>
       <use xlink:href="#DejaVuSans-4c" transform="translate(102.578125 0)"/>
       <use xlink:href="#DejaVuSans-56" transform="translate(130.359375 0)"/>
       <use xlink:href="#DejaVuSans-3" transform="translate(182.453125 0)"/>
       <use xlink:href="#DejaVuSans-55" transform="translate(214.234375 0)"/>
       <use xlink:href="#DejaVuSans-58" transform="translate(255.34375 0)"/>
       <use xlink:href="#DejaVuSans-51" transform="translate(318.71875 0)"/>
      </g>
     </g>
    </g>
    <g id="ytick_2">
     <g id="line2d_59"/>
     <g id="text_9">
      <!-- Qwen3-30B-A3B -->
      <g style="fill: #6b6b6b" transform="translate(28.761891 160.070934) scale(0.105 -0.105)">
       <defs>
        <path id="DejaVuSans-24" d="M 2188 4044 
L 1331 1722 
L 3047 1722 
L 2188 4044 
z
M 1831 4666 
L 2547 4666 
L 4325 0 
L 3669 0 
L 3244 1197 
L 1141 1197 
L 716 0 
L 50 0 
L 1831 4666 
z
" transform="scale(0.015625)"/>
       </defs>
       <use xlink:href="#DejaVuSans-34"/>
       <use xlink:href="#DejaVuSans-5a" transform="translate(78.71875 0)"/>
       <use xlink:href="#DejaVuSans-48" transform="translate(160.5 0)"/>
       <use xlink:href="#DejaVuSans-51" transform="translate(222.03125 0)"/>
       <use xlink:href="#DejaVuSans-16" transform="translate(285.40625 0)"/>
       <use xlink:href="#DejaVuSans-10" transform="translate(349.03125 0)"/>
       <use xlink:href="#DejaVuSans-16" transform="translate(385.109375 0)"/>
       <use xlink:href="#DejaVuSans-13" transform="translate(448.734375 0)"/>
       <use xlink:href="#DejaVuSans-25" transform="translate(512.359375 0)"/>
       <use xlink:href="#DejaVuSans-10" transform="translate(580.96875 0)"/>
       <use xlink:href="#DejaVuSans-24" transform="translate(614.84375 0)"/>
       <use xlink:href="#DejaVuSans-16" transform="translate(683.25 0)"/>
       <use xlink:href="#DejaVuSans-25" transform="translate(746.875 0)"/>
      </g>
     </g>
    </g>
    <g id="ytick_3">
     <g id="line2d_60"/>
     <g id="text_10">
      <!-- Qwen3-235B-A22B -->
      <g style="fill: #6b6b6b" transform="translate(15.400641 202.639974) scale(0.105 -0.105)">
       <defs>
        <path id="DejaVuSans-15" d="M 1228 531 
L 3431 531 
L 3431 0 
L 469 0 
L 469 531 
Q 828 903 1448 1529 
Q 2069 2156 2228 2338 
Q 2531 2678 2651 2914 
Q 2772 3150 2772 3378 
Q 2772 3750 2511 3984 
Q 2250 4219 1831 4219 
Q 1534 4219 1204 4116 
Q 875 4013 500 3803 
L 500 4441 
Q 881 4594 1212 4672 
Q 1544 4750 1819 4750 
Q 2544 4750 2975 4387 
Q 3406 4025 3406 3419 
Q 3406 3131 3298 2873 
Q 3191 2616 2906 2266 
Q 2828 2175 2409 1742 
Q 1991 1309 1228 531 
z
" transform="scale(0.015625)"/>
        <path id="DejaVuSans-18" d="M 691 4666 
L 3169 4666 
L 3169 4134 
L 1269 4134 
L 1269 2991 
Q 1406 3038 1543 3061 
Q 1681 3084 1819 3084 
Q 2600 3084 3056 2656 
Q 3513 2228 3513 1497 
Q 3513 744 3044 326 
Q 2575 -91 1722 -91 
Q 1428 -91 1123 -41 
Q 819 9 494 109 
L 494 744 
Q 775 591 1075 516 
Q 1375 441 1709 441 
Q 2250 441 2565 725 
Q 2881 1009 2881 1497 
Q 2881 1984 2565 2268 
Q 2250 2553 1709 2553 
Q 1456 2553 1204 2497 
Q 953 2441 691 2322 
L 691 4666 
z
" transform="scale(0.015625)"/>
       </defs>
       <use xlink:href="#DejaVuSans-34"/>
       <use xlink:href="#DejaVuSans-5a" transform="translate(78.71875 0)"/>
       <use xlink:href="#DejaVuSans-48" transform="translate(160.5 0)"/>
       <use xlink:href="#DejaVuSans-51" transform="translate(222.03125 0)"/>
       <use xlink:href="#DejaVuSans-16" transform="translate(285.40625 0)"/>
       <use xlink:href="#DejaVuSans-10" transform="translate(349.03125 0)"/>
       <use xlink:href="#DejaVuSans-15" transform="translate(385.109375 0)"/>
       <use xlink:href="#DejaVuSans-16" transform="translate(448.734375 0)"/>
       <use xlink:href="#DejaVuSans-18" transform="translate(512.359375 0)"/>
       <use xlink:href="#DejaVuSans-25" transform="translate(575.984375 0)"/>
       <use xlink:href="#DejaVuSans-10" transform="translate(644.59375 0)"/>
       <use xlink:href="#DejaVuSans-24" transform="translate(678.46875 0)"/>
       <use xlink:href="#DejaVuSans-15" transform="translate(746.875 0)"/>
       <use xlink:href="#DejaVuSans-15" transform="translate(810.5 0)"/>
       <use xlink:href="#DejaVuSans-25" transform="translate(874.125 0)"/>
      </g>
     </g>
    </g>
    <g id="ytick_4">
     <g id="line2d_61"/>
     <g id="text_11">
      <!-- Kimi K2 -->
      <g style="fill: #6b6b6b" transform="translate(74.536969 245.209425) scale(0.105 -0.105)">
       <defs>
        <path id="DejaVuSans-2e" d="M 628 4666 
L 1259 4666 
L 1259 2694 
L 3353 4666 
L 4166 4666 
L 1850 2491 
L 4331 0 
L 3500 0 
L 1259 2247 
L 1259 0 
L 628 0 
L 628 4666 
z
" transform="scale(0.015625)"/>
       </defs>
       <use xlink:href="#DejaVuSans-2e"/>
       <use xlink:href="#DejaVuSans-4c" transform="translate(65.578125 0)"/>
       <use xlink:href="#DejaVuSans-50" transform="translate(93.359375 0)"/>
       <use xlink:href="#DejaVuSans-4c" transform="translate(190.765625 0)"/>
       <use xlink:href="#DejaVuSans-3" transform="translate(218.546875 0)"/>
       <use xlink:href="#DejaVuSans-2e" transform="translate(250.328125 0)"/>
       <use xlink:href="#DejaVuSans-15" transform="translate(315.90625 0)"/>
      </g>
     </g>
    </g>
    <g id="ytick_5">
     <g id="line2d_62"/>
     <g id="text_12">
      <!-- Kimi K3 -->
      <g style="fill: #6b6b6b" transform="translate(74.536969 287.778466) scale(0.105 -0.105)">
       <use xlink:href="#DejaVuSans-2e"/>
       <use xlink:href="#DejaVuSans-4c" transform="translate(65.578125 0)"/>
       <use xlink:href="#DejaVuSans-50" transform="translate(93.359375 0)"/>
       <use xlink:href="#DejaVuSans-4c" transform="translate(190.765625 0)"/>
       <use xlink:href="#DejaVuSans-3" transform="translate(218.546875 0)"/>
       <use xlink:href="#DejaVuSans-2e" transform="translate(250.328125 0)"/>
       <use xlink:href="#DejaVuSans-16" transform="translate(315.90625 0)"/>
      </g>
     </g>
    </g>
   </g>
   <g id="line2d_63">
    <path d="M 141.350556 309.330711 
L 141.350556 79.457891 
" clip-path="url(#p74cb538030)" style="fill: none; stroke-dasharray: 1.6,2.64; stroke-dashoffset: 0; stroke: #9b9b9b; stroke-width: 1.6"/>
   </g>
   <g id="line2d_64">
    <path d="M 265.398288 309.330711 
L 265.398288 79.457891 
" clip-path="url(#p74cb538030)" style="fill: none; stroke-dasharray: 5.92,2.56; stroke-dashoffset: 0; stroke: #6b6b6b; stroke-width: 1.6"/>
   </g>
   <g id="line2d_65">
    <path d="M 418.168473 309.330711 
L 418.168473 79.457891 
" clip-path="url(#p74cb538030)" style="fill: none; stroke-dasharray: 10.24,2.56,1.6,2.56; stroke-dashoffset: 0; stroke: #3f3f3f; stroke-width: 1.6"/>
   </g>
   <g id="line2d_66">
    <path d="M 721.107187 309.330711 
L 721.107187 79.457891 
" clip-path="url(#p74cb538030)" style="fill: none; stroke: #111111; stroke-width: 1.6; stroke-linecap: square"/>
   </g>
   <g id="patch_3">
    <path d="M 117.88775 309.330711 
L 782.064 309.330711 
" style="fill: none; stroke: #dedede; stroke-width: 0.8; stroke-linejoin: miter; stroke-linecap: square"/>
   </g>
   <g id="patch_4">
    <path d="M -114943.210072 100.742411 
L 210.828846 100.742411 
L 210.828846 126.283836 
L -114943.210072 126.283836 
z
" clip-path="url(#p74cb538030)" style="fill: #111111; stroke: #111111; stroke-width: 1.4; stroke-linejoin: miter"/>
   </g>
   <g id="patch_5">
    <path d="M -114943.210072 143.311452 
L 311.965111 143.311452 
L 311.965111 168.852876 
L -114943.210072 168.852876 
z
" clip-path="url(#p74cb538030)" style="fill: #9b9b9b; stroke: #3f3f3f; stroke-width: 1.4; stroke-linejoin: miter"/>
   </g>
   <g id="patch_6">
    <path d="M -114943.210072 185.880493 
L 413.895683 185.880493 
L 413.895683 211.421917 
L -114943.210072 211.421917 
z
" clip-path="url(#p74cb538030)" style="fill: #9b9b9b; stroke: #3f3f3f; stroke-width: 1.4; stroke-linejoin: miter"/>
   </g>
   <g id="patch_7">
    <path d="M -114943.210072 228.449533 
L 486.189011 228.449533 
L 486.189011 253.990958 
L -114943.210072 253.990958 
z
" clip-path="url(#p74cb538030)" style="fill: #9b9b9b; stroke: #3f3f3f; stroke-width: 1.4; stroke-linejoin: miter"/>
   </g>
   <g id="patch_8">
    <path d="M -114943.210072 271.018574 
L 537.588106 271.018574 
L 537.588106 296.559999 
L -114943.210072 296.559999 
z
" clip-path="url(#p74cb538030)" style="fill: #9b9b9b; stroke: #3f3f3f; stroke-width: 1.4; stroke-linejoin: miter"/>
   </g>
   <g id="text_13">
    <!-- one v5e chip -->
    <g style="fill: #9b9b9b" transform="translate(113.996494 59.228359) scale(0.085 -0.085)">
     <defs>
      <path id="DejaVuSans-59" d="M 191 3500 
L 800 3500 
L 1894 563 
L 2988 3500 
L 3597 3500 
L 2284 0 
L 1503 0 
L 191 3500 
z
" transform="scale(0.015625)"/>
     </defs>
     <use xlink:href="#DejaVuSans-52"/>
     <use xlink:href="#DejaVuSans-51" transform="translate(61.1875 0)"/>
     <use xlink:href="#DejaVuSans-48" transform="translate(124.5625 0)"/>
     <use xlink:href="#DejaVuSans-3" transform="translate(186.09375 0)"/>
     <use xlink:href="#DejaVuSans-59" transform="translate(217.875 0)"/>
     <use xlink:href="#DejaVuSans-18" transform="translate(277.0625 0)"/>
     <use xlink:href="#DejaVuSans-48" transform="translate(340.6875 0)"/>
     <use xlink:href="#DejaVuSans-3" transform="translate(402.21875 0)"/>
     <use xlink:href="#DejaVuSans-46" transform="translate(434 0)"/>
     <use xlink:href="#DejaVuSans-4b" transform="translate(488.984375 0)"/>
     <use xlink:href="#DejaVuSans-4c" transform="translate(552.359375 0)"/>
     <use xlink:href="#DejaVuSans-53" transform="translate(580.140625 0)"/>
    </g>
    <!-- 16 GB -->
    <g style="fill: #9b9b9b" transform="translate(128.382744 71.026758) scale(0.085 -0.085)">
     <use xlink:href="#DejaVuSans-14"/>
     <use xlink:href="#DejaVuSans-19" transform="translate(63.625 0)"/>
     <use xlink:href="#DejaVuSans-3" transform="translate(127.25 0)"/>
     <use xlink:href="#DejaVuSans-2a" transform="translate(159.03125 0)"/>
     <use xlink:href="#DejaVuSans-25" transform="translate(236.515625 0)"/>
    </g>
   </g>
   <g id="text_14">
    <!-- one Ironwood chip -->
    <g style="fill: #6b6b6b" transform="translate(226.302936 35.228359) scale(0.085 -0.085)">
     <defs>
      <path id="DejaVuSans-2c" d="M 628 4666 
L 1259 4666 
L 1259 0 
L 628 0 
L 628 4666 
z
" transform="scale(0.015625)"/>
     </defs>
     <use xlink:href="#DejaVuSans-52"/>
     <use xlink:href="#DejaVuSans-51" transform="translate(61.1875 0)"/>
     <use xlink:href="#DejaVuSans-48" transform="translate(124.5625 0)"/>
     <use xlink:href="#DejaVuSans-3" transform="translate(186.09375 0)"/>
     <use xlink:href="#DejaVuSans-2c" transform="translate(217.875 0)"/>
     <use xlink:href="#DejaVuSans-55" transform="translate(247.375 0)"/>
     <use xlink:href="#DejaVuSans-52" transform="translate(286.28125 0)"/>
     <use xlink:href="#DejaVuSans-51" transform="translate(347.46875 0)"/>
     <use xlink:href="#DejaVuSans-5a" transform="translate(410.84375 0)"/>
     <use xlink:href="#DejaVuSans-52" transform="translate(492.625 0)"/>
     <use xlink:href="#DejaVuSans-52" transform="translate(553.8125 0)"/>
     <use xlink:href="#DejaVuSans-47" transform="translate(615 0)"/>
     <use xlink:href="#DejaVuSans-3" transform="translate(678.484375 0)"/>
     <use xlink:href="#DejaVuSans-46" transform="translate(710.265625 0)"/>
     <use xlink:href="#DejaVuSans-4b" transform="translate(765.25 0)"/>
     <use xlink:href="#DejaVuSans-4c" transform="translate(828.625 0)"/>
     <use xlink:href="#DejaVuSans-53" transform="translate(856.40625 0)"/>
    </g>
    <!-- 192 GB -->
    <g style="fill: #6b6b6b" transform="translate(249.726413 47.026758) scale(0.085 -0.085)">
     <defs>
      <path id="DejaVuSans-1c" d="M 703 97 
L 703 672 
Q 941 559 1184 500 
Q 1428 441 1663 441 
Q 2288 441 2617 861 
Q 2947 1281 2994 2138 
Q 2813 1869 2534 1725 
Q 2256 1581 1919 1581 
Q 1219 1581 811 2004 
Q 403 2428 403 3163 
Q 403 3881 828 4315 
Q 1253 4750 1959 4750 
Q 2769 4750 3195 4129 
Q 3622 3509 3622 2328 
Q 3622 1225 3098 567 
Q 2575 -91 1691 -91 
Q 1453 -91 1209 -44 
Q 966 3 703 97 
z
M 1959 2075 
Q 2384 2075 2632 2365 
Q 2881 2656 2881 3163 
Q 2881 3666 2632 3958 
Q 2384 4250 1959 4250 
Q 1534 4250 1286 3958 
Q 1038 3666 1038 3163 
Q 1038 2656 1286 2365 
Q 1534 2075 1959 2075 
z
" transform="scale(0.015625)"/>
     </defs>
     <use xlink:href="#DejaVuSans-14"/>
     <use xlink:href="#DejaVuSans-1c" transform="translate(63.625 0)"/>
     <use xlink:href="#DejaVuSans-15" transform="translate(127.25 0)"/>
     <use xlink:href="#DejaVuSans-3" transform="translate(190.875 0)"/>
     <use xlink:href="#DejaVuSans-2a" transform="translate(222.65625 0)"/>
     <use xlink:href="#DejaVuSans-25" transform="translate(300.140625 0)"/>
    </g>
   </g>
   <g id="text_15">
    <!-- full v5e pod -->
    <g style="fill: #3f3f3f" transform="translate(393.08484 59.228359) scale(0.085 -0.085)">
     <defs>
      <path id="DejaVuSans-49" d="M 2375 4863 
L 2375 4384 
L 1825 4384 
Q 1516 4384 1395 4259 
Q 1275 4134 1275 3809 
L 1275 3500 
L 2222 3500 
L 2222 3053 
L 1275 3053 
L 1275 0 
L 697 0 
L 697 3053 
L 147 3053 
L 147 3500 
L 697 3500 
L 697 3744 
Q 697 4328 969 4595 
Q 1241 4863 1831 4863 
L 2375 4863 
z
" transform="scale(0.015625)"/>
     </defs>
     <use xlink:href="#DejaVuSans-49"/>
     <use xlink:href="#DejaVuSans-58" transform="translate(35.203125 0)"/>
     <use xlink:href="#DejaVuSans-4f" transform="translate(98.578125 0)"/>
     <use xlink:href="#DejaVuSans-4f" transform="translate(126.359375 0)"/>
     <use xlink:href="#DejaVuSans-3" transform="translate(154.140625 0)"/>
     <use xlink:href="#DejaVuSans-59" transform="translate(185.921875 0)"/>
     <use xlink:href="#DejaVuSans-18" transform="translate(245.109375 0)"/>
     <use xlink:href="#DejaVuSans-48" transform="translate(308.734375 0)"/>
     <use xlink:href="#DejaVuSans-3" transform="translate(370.265625 0)"/>
     <use xlink:href="#DejaVuSans-53" transform="translate(402.046875 0)"/>
     <use xlink:href="#DejaVuSans-52" transform="translate(465.53125 0)"/>
     <use xlink:href="#DejaVuSans-47" transform="translate(526.71875 0)"/>
    </g>
    <!-- 256 chips, 4 TB -->
    <g style="fill: #3f3f3f" transform="translate(385.314645 70.278359) scale(0.085 -0.085)">
     <use xlink:href="#DejaVuSans-15"/>
     <use xlink:href="#DejaVuSans-18" transform="translate(63.625 0)"/>
     <use xlink:href="#DejaVuSans-19" transform="translate(127.25 0)"/>
     <use xlink:href="#DejaVuSans-3" transform="translate(190.875 0)"/>
     <use xlink:href="#DejaVuSans-46" transform="translate(222.65625 0)"/>
     <use xlink:href="#DejaVuSans-4b" transform="translate(277.640625 0)"/>
     <use xlink:href="#DejaVuSans-4c" transform="translate(341.015625 0)"/>
     <use xlink:href="#DejaVuSans-53" transform="translate(368.796875 0)"/>
     <use xlink:href="#DejaVuSans-56" transform="translate(432.28125 0)"/>
     <use xlink:href="#DejaVuSans-f" transform="translate(484.375 0)"/>
     <use xlink:href="#DejaVuSans-3" transform="translate(516.15625 0)"/>
     <use xlink:href="#DejaVuSans-17" transform="translate(547.9375 0)"/>
     <use xlink:href="#DejaVuSans-3" transform="translate(611.5625 0)"/>
     <use xlink:href="#DejaVuSans-37" transform="translate(643.34375 0)"/>
     <use xlink:href="#DejaVuSans-25" transform="translate(704.421875 0)"/>
    </g>
   </g>
   <g id="text_16">
    <!-- Ironwood pod -->
    <g style="fill: #111111" transform="translate(692.183945 35.228359) scale(0.085 -0.085)">
     <use xlink:href="#DejaVuSans-2c"/>
     <use xlink:href="#DejaVuSans-55" transform="translate(29.5 0)"/>
     <use xlink:href="#DejaVuSans-52" transform="translate(68.40625 0)"/>
     <use xlink:href="#DejaVuSans-51" transform="translate(129.59375 0)"/>
     <use xlink:href="#DejaVuSans-5a" transform="translate(192.96875 0)"/>
     <use xlink:href="#DejaVuSans-52" transform="translate(274.75 0)"/>
     <use xlink:href="#DejaVuSans-52" transform="translate(335.9375 0)"/>
     <use xlink:href="#DejaVuSans-47" transform="translate(397.125 0)"/>
     <use xlink:href="#DejaVuSans-3" transform="translate(460.609375 0)"/>
     <use xlink:href="#DejaVuSans-53" transform="translate(492.390625 0)"/>
     <use xlink:href="#DejaVuSans-52" transform="translate(555.875 0)"/>
     <use xlink:href="#DejaVuSans-47" transform="translate(617.0625 0)"/>
    </g>
    <!-- 9,216 chips, 1.77 PB -->
    <g style="fill: #111111" transform="translate(677.472969 46.278359) scale(0.085 -0.085)">
     <defs>
      <path id="DejaVuSans-11" d="M 684 794 
L 1344 794 
L 1344 0 
L 684 0 
L 684 794 
z
" transform="scale(0.015625)"/>
      <path id="DejaVuSans-1a" d="M 525 4666 
L 3525 4666 
L 3525 4397 
L 1831 0 
L 1172 0 
L 2766 4134 
L 525 4134 
L 525 4666 
z
" transform="scale(0.015625)"/>
     </defs>
     <use xlink:href="#DejaVuSans-1c"/>
     <use xlink:href="#DejaVuSans-f" transform="translate(63.625 0)"/>
     <use xlink:href="#DejaVuSans-15" transform="translate(95.40625 0)"/>
     <use xlink:href="#DejaVuSans-14" transform="translate(159.03125 0)"/>
     <use xlink:href="#DejaVuSans-19" transform="translate(222.65625 0)"/>
     <use xlink:href="#DejaVuSans-3" transform="translate(286.28125 0)"/>
     <use xlink:href="#DejaVuSans-46" transform="translate(318.0625 0)"/>
     <use xlink:href="#DejaVuSans-4b" transform="translate(373.046875 0)"/>
     <use xlink:href="#DejaVuSans-4c" transform="translate(436.421875 0)"/>
     <use xlink:href="#DejaVuSans-53" transform="translate(464.203125 0)"/>
     <use xlink:href="#DejaVuSans-56" transform="translate(527.6875 0)"/>
     <use xlink:href="#DejaVuSans-f" transform="translate(579.78125 0)"/>
     <use xlink:href="#DejaVuSans-3" transform="translate(611.5625 0)"/>
     <use xlink:href="#DejaVuSans-14" transform="translate(643.34375 0)"/>
     <use xlink:href="#DejaVuSans-11" transform="translate(706.96875 0)"/>
     <use xlink:href="#DejaVuSans-1a" transform="translate(738.75 0)"/>
     <use xlink:href="#DejaVuSans-1a" transform="translate(802.375 0)"/>
     <use xlink:href="#DejaVuSans-3" transform="translate(866 0)"/>
     <use xlink:href="#DejaVuSans-33" transform="translate(897.78125 0)"/>
     <use xlink:href="#DejaVuSans-25" transform="translate(958.078125 0)"/>
    </g>
   </g>
   <g id="text_17">
    <!-- The capacity lab, run forward: which fleet can hold which model -->
    <g style="fill: #111111" transform="translate(117.88775 17.457891) scale(0.135 -0.135)">
     <defs>
      <path id="DejaVuSans-1d" d="M 750 794 
L 1409 794 
L 1409 0 
L 750 0 
L 750 794 
z
M 750 3309 
L 1409 3309 
L 1409 2516 
L 750 2516 
L 750 3309 
z
" transform="scale(0.015625)"/>
      <path id="DejaVuSans-13b0" d="M 1831 4863 
L 3431 4863 
L 3431 0 
L 2853 0 
L 2853 4384 
L 1825 4384 
Q 1516 4384 1395 4259 
Q 1275 4134 1275 3809 
L 1275 3500 
L 2222 3500 
L 2222 3053 
L 1275 3053 
L 1275 0 
L 697 0 
L 697 3053 
L 147 3053 
L 147 3500 
L 697 3500 
L 697 3744 
Q 697 4328 969 4595 
Q 1241 4863 1831 4863 
z
" transform="scale(0.015625)"/>
     </defs>
     <use xlink:href="#DejaVuSans-37"/>
     <use xlink:href="#DejaVuSans-4b" transform="translate(61.078125 0)"/>
     <use xlink:href="#DejaVuSans-48" transform="translate(124.453125 0)"/>
     <use xlink:href="#DejaVuSans-3" transform="translate(185.984375 0)"/>
     <use xlink:href="#DejaVuSans-46" transform="translate(217.765625 0)"/>
     <use xlink:href="#DejaVuSans-44" transform="translate(272.75 0)"/>
     <use xlink:href="#DejaVuSans-53" transform="translate(334.03125 0)"/>
     <use xlink:href="#DejaVuSans-44" transform="translate(397.515625 0)"/>
     <use xlink:href="#DejaVuSans-46" transform="translate(458.796875 0)"/>
     <use xlink:href="#DejaVuSans-4c" transform="translate(513.78125 0)"/>
     <use xlink:href="#DejaVuSans-57" transform="translate(541.5625 0)"/>
     <use xlink:href="#DejaVuSans-5c" transform="translate(580.765625 0)"/>
     <use xlink:href="#DejaVuSans-3" transform="translate(639.953125 0)"/>
     <use xlink:href="#DejaVuSans-4f" transform="translate(671.734375 0)"/>
     <use xlink:href="#DejaVuSans-44" transform="translate(699.515625 0)"/>
     <use xlink:href="#DejaVuSans-45" transform="translate(760.796875 0)"/>
     <use xlink:href="#DejaVuSans-f" transform="translate(824.28125 0)"/>
     <use xlink:href="#DejaVuSans-3" transform="translate(856.0625 0)"/>
     <use xlink:href="#DejaVuSans-55" transform="translate(887.84375 0)"/>
     <use xlink:href="#DejaVuSans-58" transform="translate(928.953125 0)"/>
     <use xlink:href="#DejaVuSans-51" transform="translate(992.328125 0)"/>
     <use xlink:href="#DejaVuSans-3" transform="translate(1055.703125 0)"/>
     <use xlink:href="#DejaVuSans-49" transform="translate(1087.484375 0)"/>
     <use xlink:href="#DejaVuSans-52" transform="translate(1122.6875 0)"/>
     <use xlink:href="#DejaVuSans-55" transform="translate(1183.875 0)"/>
     <use xlink:href="#DejaVuSans-5a" transform="translate(1224.984375 0)"/>
     <use xlink:href="#DejaVuSans-44" transform="translate(1306.765625 0)"/>
     <use xlink:href="#DejaVuSans-55" transform="translate(1368.046875 0)"/>
     <use xlink:href="#DejaVuSans-47" transform="translate(1407.40625 0)"/>
     <use xlink:href="#DejaVuSans-1d" transform="translate(1470.890625 0)"/>
     <use xlink:href="#DejaVuSans-3" transform="translate(1504.578125 0)"/>
     <use xlink:href="#DejaVuSans-5a" transform="translate(1536.359375 0)"/>
     <use xlink:href="#DejaVuSans-4b" transform="translate(1618.140625 0)"/>
     <use xlink:href="#DejaVuSans-4c" transform="translate(1681.515625 0)"/>
     <use xlink:href="#DejaVuSans-46" transform="translate(1709.296875 0)"/>
     <use xlink:href="#DejaVuSans-4b" transform="translate(1764.28125 0)"/>
     <use xlink:href="#DejaVuSans-3" transform="translate(1827.65625 0)"/>
     <use xlink:href="#DejaVuSans-13b0" transform="translate(1859.4375 0)"/>
     <use xlink:href="#DejaVuSans-48" transform="translate(1922.421875 0)"/>
     <use xlink:href="#DejaVuSans-48" transform="translate(1983.953125 0)"/>
     <use xlink:href="#DejaVuSans-57" transform="translate(2045.484375 0)"/>
     <use xlink:href="#DejaVuSans-3" transform="translate(2084.6875 0)"/>
     <use xlink:href="#DejaVuSans-46" transform="translate(2116.46875 0)"/>
     <use xlink:href="#DejaVuSans-44" transform="translate(2171.453125 0)"/>
     <use xlink:href="#DejaVuSans-51" transform="translate(2232.734375 0)"/>
     <use xlink:href="#DejaVuSans-3" transform="translate(2296.109375 0)"/>
     <use xlink:href="#DejaVuSans-4b" transform="translate(2327.890625 0)"/>
     <use xlink:href="#DejaVuSans-52" transform="translate(2391.265625 0)"/>
     <use xlink:href="#DejaVuSans-4f" transform="translate(2452.453125 0)"/>
     <use xlink:href="#DejaVuSans-47" transform="translate(2480.234375 0)"/>
     <use xlink:href="#DejaVuSans-3" transform="translate(2543.71875 0)"/>
     <use xlink:href="#DejaVuSans-5a" transform="translate(2575.5 0)"/>
     <use xlink:href="#DejaVuSans-4b" transform="translate(2657.28125 0)"/>
     <use xlink:href="#DejaVuSans-4c" transform="translate(2720.65625 0)"/>
     <use xlink:href="#DejaVuSans-46" transform="translate(2748.4375 0)"/>
     <use xlink:href="#DejaVuSans-4b" transform="translate(2803.421875 0)"/>
     <use xlink:href="#DejaVuSans-3" transform="translate(2866.796875 0)"/>
     <use xlink:href="#DejaVuSans-50" transform="translate(2898.578125 0)"/>
     <use xlink:href="#DejaVuSans-52" transform="translate(2995.984375 0)"/>
     <use xlink:href="#DejaVuSans-47" transform="translate(3057.171875 0)"/>
     <use xlink:href="#DejaVuSans-48" transform="translate(3120.65625 0)"/>
     <use xlink:href="#DejaVuSans-4f" transform="translate(3182.1875 0)"/>
    </g>
   </g>
   <g id="text_18">
    <!-- 64 GB -->
    <g style="fill: #111111" transform="translate(217.805829 116.240662) scale(0.105 -0.105)">
     <defs>
      <path id="DejaVuSans-Bold-19" d="M 2316 2303 
Q 2000 2303 1842 2098 
Q 1684 1894 1684 1484 
Q 1684 1075 1842 870 
Q 2000 666 2316 666 
Q 2634 666 2792 870 
Q 2950 1075 2950 1484 
Q 2950 1894 2792 2098 
Q 2634 2303 2316 2303 
z
M 3803 4544 
L 3803 3681 
Q 3506 3822 3243 3889 
Q 2981 3956 2731 3956 
Q 2194 3956 1894 3657 
Q 1594 3359 1544 2772 
Q 1750 2925 1990 3001 
Q 2231 3078 2516 3078 
Q 3231 3078 3670 2659 
Q 4109 2241 4109 1563 
Q 4109 813 3618 361 
Q 3128 -91 2303 -91 
Q 1394 -91 895 523 
Q 397 1138 397 2266 
Q 397 3422 980 4083 
Q 1563 4744 2578 4744 
Q 2900 4744 3203 4694 
Q 3506 4644 3803 4544 
z
" transform="scale(0.015625)"/>
      <path id="DejaVuSans-Bold-17" d="M 2356 3675 
L 1038 1722 
L 2356 1722 
L 2356 3675 
z
M 2156 4666 
L 3494 4666 
L 3494 1722 
L 4159 1722 
L 4159 850 
L 3494 850 
L 3494 0 
L 2356 0 
L 2356 850 
L 288 850 
L 288 1881 
L 2156 4666 
z
" transform="scale(0.015625)"/>
      <path id="DejaVuSans-Bold-3" transform="scale(0.015625)"/>
      <path id="DejaVuSans-Bold-2a" d="M 4781 347 
Q 4331 128 3847 18 
Q 3363 -91 2847 -91 
Q 1681 -91 1000 561 
Q 319 1213 319 2328 
Q 319 3456 1012 4103 
Q 1706 4750 2913 4750 
Q 3378 4750 3804 4662 
Q 4231 4575 4609 4403 
L 4609 3438 
Q 4219 3659 3833 3768 
Q 3447 3878 3059 3878 
Q 2341 3878 1952 3476 
Q 1563 3075 1563 2328 
Q 1563 1588 1938 1184 
Q 2313 781 3003 781 
Q 3191 781 3352 804 
Q 3513 828 3641 878 
L 3641 1784 
L 2906 1784 
L 2906 2591 
L 4781 2591 
L 4781 347 
z
" transform="scale(0.015625)"/>
      <path id="DejaVuSans-Bold-25" d="M 2456 2859 
Q 2741 2859 2887 2984 
Q 3034 3109 3034 3353 
Q 3034 3594 2887 3720 
Q 2741 3847 2456 3847 
L 1791 3847 
L 1791 2859 
L 2456 2859 
z
M 2497 819 
Q 2859 819 3042 972 
Q 3225 1125 3225 1434 
Q 3225 1738 3044 1889 
Q 2863 2041 2497 2041 
L 1791 2041 
L 1791 819 
L 2497 819 
z
M 3616 2497 
Q 4003 2384 4215 2081 
Q 4428 1778 4428 1338 
Q 4428 663 3972 331 
Q 3516 0 2584 0 
L 588 0 
L 588 4666 
L 2394 4666 
Q 3366 4666 3802 4372 
Q 4238 4078 4238 3431 
Q 4238 3091 4078 2852 
Q 3919 2613 3616 2497 
z
" transform="scale(0.015625)"/>
     </defs>
     <use xlink:href="#DejaVuSans-Bold-19"/>
     <use xlink:href="#DejaVuSans-Bold-17" transform="translate(69.578125 0)"/>
     <use xlink:href="#DejaVuSans-Bold-3" transform="translate(139.15625 0)"/>
     <use xlink:href="#DejaVuSans-Bold-2a" transform="translate(173.96875 0)"/>
     <use xlink:href="#DejaVuSans-Bold-25" transform="translate(256.046875 0)"/>
    </g>
   </g>
   <g id="text_19">
    <!-- 488 GB -->
    <g style="fill: #111111" transform="translate(318.942094 158.809703) scale(0.105 -0.105)">
     <defs>
      <path id="DejaVuSans-1b" d="M 2034 2216 
Q 1584 2216 1326 1975 
Q 1069 1734 1069 1313 
Q 1069 891 1326 650 
Q 1584 409 2034 409 
Q 2484 409 2743 651 
Q 3003 894 3003 1313 
Q 3003 1734 2745 1975 
Q 2488 2216 2034 2216 
z
M 1403 2484 
Q 997 2584 770 2862 
Q 544 3141 544 3541 
Q 544 4100 942 4425 
Q 1341 4750 2034 4750 
Q 2731 4750 3128 4425 
Q 3525 4100 3525 3541 
Q 3525 3141 3298 2862 
Q 3072 2584 2669 2484 
Q 3125 2378 3379 2068 
Q 3634 1759 3634 1313 
Q 3634 634 3220 271 
Q 2806 -91 2034 -91 
Q 1263 -91 848 271 
Q 434 634 434 1313 
Q 434 1759 690 2068 
Q 947 2378 1403 2484 
z
M 1172 3481 
Q 1172 3119 1398 2916 
Q 1625 2713 2034 2713 
Q 2441 2713 2670 2916 
Q 2900 3119 2900 3481 
Q 2900 3844 2670 4047 
Q 2441 4250 2034 4250 
Q 1625 4250 1398 4047 
Q 1172 3844 1172 3481 
z
" transform="scale(0.015625)"/>
     </defs>
     <use xlink:href="#DejaVuSans-17"/>
     <use xlink:href="#DejaVuSans-1b" transform="translate(63.625 0)"/>
     <use xlink:href="#DejaVuSans-1b" transform="translate(127.25 0)"/>
     <use xlink:href="#DejaVuSans-3" transform="translate(190.875 0)"/>
     <use xlink:href="#DejaVuSans-2a" transform="translate(222.65625 0)"/>
     <use xlink:href="#DejaVuSans-25" transform="translate(300.140625 0)"/>
    </g>
   </g>
   <g id="text_20">
    <!-- 3.8 TB -->
    <g style="fill: #111111" transform="translate(420.872666 201.378744) scale(0.105 -0.105)">
     <use xlink:href="#DejaVuSans-16"/>
     <use xlink:href="#DejaVuSans-11" transform="translate(63.625 0)"/>
     <use xlink:href="#DejaVuSans-1b" transform="translate(95.40625 0)"/>
     <use xlink:href="#DejaVuSans-3" transform="translate(159.03125 0)"/>
     <use xlink:href="#DejaVuSans-37" transform="translate(190.8125 0)"/>
     <use xlink:href="#DejaVuSans-25" transform="translate(251.890625 0)"/>
    </g>
   </g>
   <g id="text_21">
    <!-- 16.0 TB -->
    <g style="fill: #111111" transform="translate(493.165995 243.947785) scale(0.105 -0.105)">
     <use xlink:href="#DejaVuSans-14"/>
     <use xlink:href="#DejaVuSans-19" transform="translate(63.625 0)"/>
     <use xlink:href="#DejaVuSans-11" transform="translate(127.25 0)"/>
     <use xlink:href="#DejaVuSans-13" transform="translate(159.03125 0)"/>
     <use xlink:href="#DejaVuSans-3" transform="translate(222.65625 0)"/>
     <use xlink:href="#DejaVuSans-37" transform="translate(254.4375 0)"/>
     <use xlink:href="#DejaVuSans-25" transform="translate(315.515625 0)"/>
    </g>
   </g>
   <g id="text_22">
    <!-- 44.8 TB -->
    <g style="fill: #111111" transform="translate(544.56509 286.516826) scale(0.105 -0.105)">
     <use xlink:href="#DejaVuSans-17"/>
     <use xlink:href="#DejaVuSans-17" transform="translate(63.625 0)"/>
     <use xlink:href="#DejaVuSans-11" transform="translate(127.25 0)"/>
     <use xlink:href="#DejaVuSans-1b" transform="translate(159.03125 0)"/>
     <use xlink:href="#DejaVuSans-3" transform="translate(222.65625 0)"/>
     <use xlink:href="#DejaVuSans-37" transform="translate(254.4375 0)"/>
     <use xlink:href="#DejaVuSans-25" transform="translate(315.515625 0)"/>
    </g>
   </g>
  </g>
  <g id="text_23">
   <!-- Kimi K3 needs 44.8 TB, which is 11x the HBM of an entire 256-chip v5e pod. An Ironwood pod clears it with room. That gap is why 2.8T open models arrived in 2026. -->
   <g style="fill: #6b6b6b" transform="translate(7.2 365.185055) scale(0.09 -0.09)">
    <defs>
     <path id="DejaVuSans-5b" d="M 3513 3500 
L 2247 1797 
L 3578 0 
L 2900 0 
L 1881 1375 
L 863 0 
L 184 0 
L 1544 1831 
L 300 3500 
L 978 3500 
L 1906 2253 
L 2834 3500 
L 3513 3500 
z
" transform="scale(0.015625)"/>
     <path id="DejaVuSans-2b" d="M 628 4666 
L 1259 4666 
L 1259 2753 
L 3553 2753 
L 3553 4666 
L 4184 4666 
L 4184 0 
L 3553 0 
L 3553 2222 
L 1259 2222 
L 1259 0 
L 628 0 
L 628 4666 
z
" transform="scale(0.015625)"/>
     <path id="DejaVuSans-30" d="M 628 4666 
L 1569 4666 
L 2759 1491 
L 3956 4666 
L 4897 4666 
L 4897 0 
L 4281 0 
L 4281 4097 
L 3078 897 
L 2444 897 
L 1241 4097 
L 1241 0 
L 628 0 
L 628 4666 
z
" transform="scale(0.015625)"/>
    </defs>
    <use xlink:href="#DejaVuSans-2e"/>
    <use xlink:href="#DejaVuSans-4c" transform="translate(65.578125 0)"/>
    <use xlink:href="#DejaVuSans-50" transform="translate(93.359375 0)"/>
    <use xlink:href="#DejaVuSans-4c" transform="translate(190.765625 0)"/>
    <use xlink:href="#DejaVuSans-3" transform="translate(218.546875 0)"/>
    <use xlink:href="#DejaVuSans-2e" transform="translate(250.328125 0)"/>
    <use xlink:href="#DejaVuSans-16" transform="translate(315.90625 0)"/>
    <use xlink:href="#DejaVuSans-3" transform="translate(379.53125 0)"/>
    <use xlink:href="#DejaVuSans-51" transform="translate(411.3125 0)"/>
    <use xlink:href="#DejaVuSans-48" transform="translate(474.6875 0)"/>
    <use xlink:href="#DejaVuSans-48" transform="translate(536.21875 0)"/>
    <use xlink:href="#DejaVuSans-47" transform="translate(597.75 0)"/>
    <use xlink:href="#DejaVuSans-56" transform="translate(661.234375 0)"/>
    <use xlink:href="#DejaVuSans-3" transform="translate(713.328125 0)"/>
    <use xlink:href="#DejaVuSans-17" transform="translate(745.109375 0)"/>
    <use xlink:href="#DejaVuSans-17" transform="translate(808.734375 0)"/>
    <use xlink:href="#DejaVuSans-11" transform="translate(872.359375 0)"/>
    <use xlink:href="#DejaVuSans-1b" transform="translate(904.140625 0)"/>
    <use xlink:href="#DejaVuSans-3" transform="translate(967.765625 0)"/>
    <use xlink:href="#DejaVuSans-37" transform="translate(999.546875 0)"/>
    <use xlink:href="#DejaVuSans-25" transform="translate(1060.625 0)"/>
    <use xlink:href="#DejaVuSans-f" transform="translate(1129.234375 0)"/>
    <use xlink:href="#DejaVuSans-3" transform="translate(1161.015625 0)"/>
    <use xlink:href="#DejaVuSans-5a" transform="translate(1192.796875 0)"/>
    <use xlink:href="#DejaVuSans-4b" transform="translate(1274.578125 0)"/>
    <use xlink:href="#DejaVuSans-4c" transform="translate(1337.953125 0)"/>
    <use xlink:href="#DejaVuSans-46" transform="translate(1365.734375 0)"/>
    <use xlink:href="#DejaVuSans-4b" transform="translate(1420.71875 0)"/>
    <use xlink:href="#DejaVuSans-3" transform="translate(1484.09375 0)"/>
    <use xlink:href="#DejaVuSans-4c" transform="translate(1515.875 0)"/>
    <use xlink:href="#DejaVuSans-56" transform="translate(1543.65625 0)"/>
    <use xlink:href="#DejaVuSans-3" transform="translate(1595.75 0)"/>
    <use xlink:href="#DejaVuSans-14" transform="translate(1627.53125 0)"/>
    <use xlink:href="#DejaVuSans-14" transform="translate(1691.15625 0)"/>
    <use xlink:href="#DejaVuSans-5b" transform="translate(1754.78125 0)"/>
    <use xlink:href="#DejaVuSans-3" transform="translate(1813.96875 0)"/>
    <use xlink:href="#DejaVuSans-57" transform="translate(1845.75 0)"/>
    <use xlink:href="#DejaVuSans-4b" transform="translate(1884.953125 0)"/>
    <use xlink:href="#DejaVuSans-48" transform="translate(1948.328125 0)"/>
    <use xlink:href="#DejaVuSans-3" transform="translate(2009.859375 0)"/>
    <use xlink:href="#DejaVuSans-2b" transform="translate(2041.640625 0)"/>
    <use xlink:href="#DejaVuSans-25" transform="translate(2116.84375 0)"/>
    <use xlink:href="#DejaVuSans-30" transform="translate(2185.453125 0)"/>
    <use xlink:href="#DejaVuSans-3" transform="translate(2271.734375 0)"/>
    <use xlink:href="#DejaVuSans-52" transform="translate(2303.515625 0)"/>
    <use xlink:href="#DejaVuSans-49" transform="translate(2364.703125 0)"/>
    <use xlink:href="#DejaVuSans-3" transform="translate(2399.90625 0)"/>
    <use xlink:href="#DejaVuSans-44" transform="translate(2431.6875 0)"/>
    <use xlink:href="#DejaVuSans-51" transform="translate(2492.96875 0)"/>
    <use xlink:href="#DejaVuSans-3" transform="translate(2556.34375 0)"/>
    <use xlink:href="#DejaVuSans-48" transform="translate(2588.125 0)"/>
    <use xlink:href="#DejaVuSans-51" transform="translate(2649.65625 0)"/>
    <use xlink:href="#DejaVuSans-57" transform="translate(2713.03125 0)"/>
    <use xlink:href="#DejaVuSans-4c" transform="translate(2752.234375 0)"/>
    <use xlink:href="#DejaVuSans-55" transform="translate(2780.015625 0)"/>
    <use xlink:href="#DejaVuSans-48" transform="translate(2818.921875 0)"/>
    <use xlink:href="#DejaVuSans-3" transform="translate(2880.453125 0)"/>
    <use xlink:href="#DejaVuSans-15" transform="translate(2912.234375 0)"/>
    <use xlink:href="#DejaVuSans-18" transform="translate(2975.859375 0)"/>
    <use xlink:href="#DejaVuSans-19" transform="translate(3039.484375 0)"/>
    <use xlink:href="#DejaVuSans-10" transform="translate(3103.109375 0)"/>
    <use xlink:href="#DejaVuSans-46" transform="translate(3139.1875 0)"/>
    <use xlink:href="#DejaVuSans-4b" transform="translate(3194.171875 0)"/>
    <use xlink:href="#DejaVuSans-4c" transform="translate(3257.546875 0)"/>
    <use xlink:href="#DejaVuSans-53" transform="translate(3285.328125 0)"/>
    <use xlink:href="#DejaVuSans-3" transform="translate(3348.8125 0)"/>
    <use xlink:href="#DejaVuSans-59" transform="translate(3380.59375 0)"/>
    <use xlink:href="#DejaVuSans-18" transform="translate(3439.78125 0)"/>
    <use xlink:href="#DejaVuSans-48" transform="translate(3503.40625 0)"/>
    <use xlink:href="#DejaVuSans-3" transform="translate(3564.9375 0)"/>
    <use xlink:href="#DejaVuSans-53" transform="translate(3596.71875 0)"/>
    <use xlink:href="#DejaVuSans-52" transform="translate(3660.203125 0)"/>
    <use xlink:href="#DejaVuSans-47" transform="translate(3721.390625 0)"/>
    <use xlink:href="#DejaVuSans-11" transform="translate(3784.875 0)"/>
    <use xlink:href="#DejaVuSans-3" transform="translate(3816.65625 0)"/>
    <use xlink:href="#DejaVuSans-24" transform="translate(3848.4375 0)"/>
    <use xlink:href="#DejaVuSans-51" transform="translate(3916.84375 0)"/>
    <use xlink:href="#DejaVuSans-3" transform="translate(3980.21875 0)"/>
    <use xlink:href="#DejaVuSans-2c" transform="translate(4012 0)"/>
    <use xlink:href="#DejaVuSans-55" transform="translate(4041.5 0)"/>
    <use xlink:href="#DejaVuSans-52" transform="translate(4080.40625 0)"/>
    <use xlink:href="#DejaVuSans-51" transform="translate(4141.59375 0)"/>
    <use xlink:href="#DejaVuSans-5a" transform="translate(4204.96875 0)"/>
    <use xlink:href="#DejaVuSans-52" transform="translate(4286.75 0)"/>
    <use xlink:href="#DejaVuSans-52" transform="translate(4347.9375 0)"/>
    <use xlink:href="#DejaVuSans-47" transform="translate(4409.125 0)"/>
    <use xlink:href="#DejaVuSans-3" transform="translate(4472.609375 0)"/>
    <use xlink:href="#DejaVuSans-53" transform="translate(4504.390625 0)"/>
    <use xlink:href="#DejaVuSans-52" transform="translate(4567.875 0)"/>
    <use xlink:href="#DejaVuSans-47" transform="translate(4629.0625 0)"/>
    <use xlink:href="#DejaVuSans-3" transform="translate(4692.546875 0)"/>
    <use xlink:href="#DejaVuSans-46" transform="translate(4724.328125 0)"/>
    <use xlink:href="#DejaVuSans-4f" transform="translate(4779.3125 0)"/>
    <use xlink:href="#DejaVuSans-48" transform="translate(4807.09375 0)"/>
    <use xlink:href="#DejaVuSans-44" transform="translate(4868.625 0)"/>
    <use xlink:href="#DejaVuSans-55" transform="translate(4929.90625 0)"/>
    <use xlink:href="#DejaVuSans-56" transform="translate(4971.015625 0)"/>
    <use xlink:href="#DejaVuSans-3" transform="translate(5023.109375 0)"/>
    <use xlink:href="#DejaVuSans-4c" transform="translate(5054.890625 0)"/>
    <use xlink:href="#DejaVuSans-57" transform="translate(5082.671875 0)"/>
    <use xlink:href="#DejaVuSans-3" transform="translate(5121.875 0)"/>
    <use xlink:href="#DejaVuSans-5a" transform="translate(5153.65625 0)"/>
    <use xlink:href="#DejaVuSans-4c" transform="translate(5235.4375 0)"/>
    <use xlink:href="#DejaVuSans-57" transform="translate(5263.21875 0)"/>
    <use xlink:href="#DejaVuSans-4b" transform="translate(5302.421875 0)"/>
    <use xlink:href="#DejaVuSans-3" transform="translate(5365.796875 0)"/>
    <use xlink:href="#DejaVuSans-55" transform="translate(5397.578125 0)"/>
    <use xlink:href="#DejaVuSans-52" transform="translate(5436.484375 0)"/>
    <use xlink:href="#DejaVuSans-52" transform="translate(5497.671875 0)"/>
    <use xlink:href="#DejaVuSans-50" transform="translate(5558.859375 0)"/>
    <use xlink:href="#DejaVuSans-11" transform="translate(5656.265625 0)"/>
    <use xlink:href="#DejaVuSans-3" transform="translate(5688.046875 0)"/>
    <use xlink:href="#DejaVuSans-37" transform="translate(5719.828125 0)"/>
    <use xlink:href="#DejaVuSans-4b" transform="translate(5780.90625 0)"/>
    <use xlink:href="#DejaVuSans-44" transform="translate(5844.28125 0)"/>
    <use xlink:href="#DejaVuSans-57" transform="translate(5905.5625 0)"/>
    <use xlink:href="#DejaVuSans-3" transform="translate(5944.765625 0)"/>
    <use xlink:href="#DejaVuSans-4a" transform="translate(5976.546875 0)"/>
    <use xlink:href="#DejaVuSans-44" transform="translate(6040.03125 0)"/>
    <use xlink:href="#DejaVuSans-53" transform="translate(6101.3125 0)"/>
    <use xlink:href="#DejaVuSans-3" transform="translate(6164.796875 0)"/>
    <use xlink:href="#DejaVuSans-4c" transform="translate(6196.578125 0)"/>
    <use xlink:href="#DejaVuSans-56" transform="translate(6224.359375 0)"/>
    <use xlink:href="#DejaVuSans-3" transform="translate(6276.453125 0)"/>
    <use xlink:href="#DejaVuSans-5a" transform="translate(6308.234375 0)"/>
    <use xlink:href="#DejaVuSans-4b" transform="translate(6390.015625 0)"/>
    <use xlink:href="#DejaVuSans-5c" transform="translate(6453.390625 0)"/>
    <use xlink:href="#DejaVuSans-3" transform="translate(6512.578125 0)"/>
    <use xlink:href="#DejaVuSans-15" transform="translate(6544.359375 0)"/>
    <use xlink:href="#DejaVuSans-11" transform="translate(6607.984375 0)"/>
    <use xlink:href="#DejaVuSans-1b" transform="translate(6639.765625 0)"/>
    <use xlink:href="#DejaVuSans-37" transform="translate(6703.390625 0)"/>
    <use xlink:href="#DejaVuSans-3" transform="translate(6764.46875 0)"/>
    <use xlink:href="#DejaVuSans-52" transform="translate(6796.25 0)"/>
    <use xlink:href="#DejaVuSans-53" transform="translate(6857.4375 0)"/>
    <use xlink:href="#DejaVuSans-48" transform="translate(6920.921875 0)"/>
    <use xlink:href="#DejaVuSans-51" transform="translate(6982.453125 0)"/>
    <use xlink:href="#DejaVuSans-3" transform="translate(7045.828125 0)"/>
    <use xlink:href="#DejaVuSans-50" transform="translate(7077.609375 0)"/>
    <use xlink:href="#DejaVuSans-52" transform="translate(7175.015625 0)"/>
    <use xlink:href="#DejaVuSans-47" transform="translate(7236.203125 0)"/>
    <use xlink:href="#DejaVuSans-48" transform="translate(7299.6875 0)"/>
    <use xlink:href="#DejaVuSans-4f" transform="translate(7361.21875 0)"/>
    <use xlink:href="#DejaVuSans-56" transform="translate(7389 0)"/>
    <use xlink:href="#DejaVuSans-3" transform="translate(7441.09375 0)"/>
    <use xlink:href="#DejaVuSans-44" transform="translate(7472.875 0)"/>
    <use xlink:href="#DejaVuSans-55" transform="translate(7534.15625 0)"/>
    <use xlink:href="#DejaVuSans-55" transform="translate(7573.515625 0)"/>
    <use xlink:href="#DejaVuSans-4c" transform="translate(7614.625 0)"/>
    <use xlink:href="#DejaVuSans-59" transform="translate(7642.40625 0)"/>
    <use xlink:href="#DejaVuSans-48" transform="translate(7701.59375 0)"/>
    <use xlink:href="#DejaVuSans-47" transform="translate(7763.125 0)"/>
    <use xlink:href="#DejaVuSans-3" transform="translate(7826.609375 0)"/>
    <use xlink:href="#DejaVuSans-4c" transform="translate(7858.390625 0)"/>
    <use xlink:href="#DejaVuSans-51" transform="translate(7886.171875 0)"/>
    <use xlink:href="#DejaVuSans-3" transform="translate(7949.546875 0)"/>
    <use xlink:href="#DejaVuSans-15" transform="translate(7981.328125 0)"/>
    <use xlink:href="#DejaVuSans-13" transform="translate(8044.953125 0)"/>
    <use xlink:href="#DejaVuSans-15" transform="translate(8108.578125 0)"/>
    <use xlink:href="#DejaVuSans-19" transform="translate(8172.203125 0)"/>
    <use xlink:href="#DejaVuSans-11" transform="translate(8235.828125 0)"/>
   </g>
  </g>
 </g>
 <defs>
  <clipPath id="p74cb538030">
   <rect x="117.88775" y="79.457891" width="664.17625" height="229.87282"/>
  </clipPath>
 </defs>
</svg>
